<?xml version="1.0" encoding="UTF-8"?>
<svg id="Layer_2" data-name="Layer 2" xmlns="http://www.w3.org/2000/svg" viewBox="0 0 20.38 26.01">
  <defs>
    <style>
      .cls-1 {
        fill: #99cbc9;
      }
    </style>
  </defs>
  <g id="Layer_1-2" data-name="Layer 1">
    <g id="Top_page">
      <g>
        <path class="cls-1" d="M14.17,10.19l5.38-5.38c1.1-1.1,1.1-2.88,0-3.98-1.1-1.1-2.88-1.1-3.98,0l-5.38,5.38L4.81.83C3.71-.28,1.92-.28.83.83-.28,1.92-.28,3.71.83,4.81l5.38,5.38,3.98,3.98,3.98-3.98Z"/>
        <path class="cls-1" d="M14.18,22.03l5.38-5.38c1.1-1.1,1.1-2.88,0-3.98-1.1-1.1-2.88-1.1-3.98,0l-5.38,5.38-5.38-5.38c-1.1-1.1-2.88-1.1-3.98,0-1.1,1.1-1.1,2.88,0,3.98l5.38,5.38,3.98,3.98,3.98-3.98Z"/>
      </g>
    </g>
  </g>
</svg>