<?xml version="1.0" encoding="UTF-8"?>
<svg id="Layer_2" data-name="Layer 2" xmlns="http://www.w3.org/2000/svg" viewBox="0 0 156.62 67.13">
  <defs>
    <style>
      .cls-1 {
        fill: #fff;
      }

      .cls-2 {
        fill: none;
        stroke: #fff;
        stroke-miterlimit: 10;
        stroke-width: 1.3px;
      }

      .cls-3 {
        fill: #ee5829;
      }
    </style>
  </defs>
  <g id="Layer_1-2" data-name="Layer 1">
    <g id="Top_page">
      <g>
        <g>
          <g>
            <circle class="cls-3" cx="137.73" cy="30.71" r="5.29"/>
            <circle class="cls-3" cx="121.76" cy="30.71" r="5.29"/>
          </g>
          <g>
            <path class="cls-1" d="M95.36,25.39h0c-.29-.1-.69-.22-1.17-.3-.45-.07-1.04-.16-1.79-.04-.96.16-1.62.59-1.93.79-.36.24-.62.47-.8.65,0-.5,0-.99,0-1.49h-4.75c0,4.25,0,8.51,0,12.76,1.58,0,3.17-.01,4.75-.02,0-2.51,0-5.02,0-7.53.19-.3.6-.87,1.35-1.27.63-.33,1.21-.39,1.45-.41.1,0,.39-.03.86.02.47.05,1.19.18,2.04.57h0s0,0,0,0v-3.74Z"/>
            <path class="cls-1" d="M22.75,31.21h7.43v-3.8h-7.43v-2.44h8.05c0-1.42,0-2.84,0-4.26h-12.8c0,5.68,0,11.37,0,17.05,4.26,0,8.53,0,12.79,0v-4.26h-8.05c0-.76,0-1.53,0-2.29Z"/>
            <path class="cls-1" d="M44.34,28.74c-1.73,1.77-3.47,3.54-5.2,5.31,2.07,0,4.15-.01,6.22-.02,0,1.24,0,2.49,0,3.73h-12.56v-2.85l5.91-6.17h-5.73c-.71-.71-.97-1.63-.65-2.4.3-.74,1.02-1.07,1.24-1.16,1.31-.54,2.71.13,3.68.44,1.42.44,3.65.65,7.06-.64,0,1.26.02,2.51.03,3.77Z"/>
            <path class="cls-1" d="M54.87,20.73h7.32c.99,0,1.89.14,2.7.41.81.28,1.5.67,2.07,1.18.21.19.41.4.59.62,0,0,.44.54.74,1.22.61,1.37.68,4.1-.55,5.96-.29.45-.63.79-.67.83-.12.13-.69.69-1.75,1.21-1.17.57-2.3.77-3.14.83h-2.57v4.76h-4.74v-17.03ZM59.61,28.76h2.12c.15,0,.92.03,1.51-.54.77-.74.6-1.85.44-2.18-.17-.37-.45-.6-.45-.6,0,0,0,0-.01-.01-.37-.3-.8-.35-1.47-.38-.57-.03-1.29-.04-2.13,0v3.7Z"/>
            <path class="cls-1" d="M105.89,37.76l-4.43-5.53v5.53h-4.7v-18.77h4.7v10.54c1.17-1.53,2.34-3.06,3.51-4.59,1.85,0,3.7,0,5.55,0-1.55,1.96-3.09,3.93-4.64,5.89l5.94,6.93h-5.94Z"/>
            <path class="cls-1" d="M82.84,37.15c-.44.38-1,.57-1.68.57s-1.23-.19-1.66-.57c-.43-.38-.65-.86-.65-1.45v-4.34c0-.65-.26-1.2-.79-1.65-.52-.45-1.16-.67-1.9-.67s-1.38.22-1.89.67c-.52.45-.77,1-.77,1.65s.26,1.2.77,1.66c.52.46,1.15.69,1.89.69.68,0,1.23.19,1.68.57.44.38.66.86.66,1.45s-.22,1.08-.66,1.46c-.44.39-1,.58-1.68.58-2.07,0-3.81-.61-5.21-1.84-1.4-1.23-2.1-2.75-2.1-4.56s.7-3.32,2.1-4.54c.24-.21.77-.66,1.56-1.04,1.92-.94,3.65-.75,3.65-.75.38.04,1.29.19,2.2.44,0,0,.8.26,1.32.09,0,0,.05-.02.12-.04.3-.1.51-.17.55-.19.49-.17.92-.33,1.34-.33.14,0,.95-.02,1.42.54.38.44.39,1.07.4,1.36,0,0,0,0,0,.74v1.63c0,.23,0,.46,0,.69,0,.88,0,.98,0,1.42,0,.1,0,.27,0,.49,0,.42,0,.82,0,1.52,0,.54,0,.42,0,.66,0,.31,0,1.05,0,1.65,0,.02,0,.04,0,.06-.01.4-.16.7-.2.79-.16.33-.38.52-.48.61Z"/>
            <path class="cls-1" d="M20.33,43.09v.5h-.9v2.7h-.53v-2.7h-.91v-.5h2.33Z"/>
            <path class="cls-1" d="M25.56,44.89v1.4h-.49v-1.35c0-.34-.2-.53-.51-.53-.35,0-.58.21-.58.66v1.23h-.49v-3.2h.49v1.21c.15-.23.38-.35.71-.35.53,0,.88.36.88.94Z"/>
            <path class="cls-1" d="M28.8,43.65c-.12-.13-.12-.31,0-.43.12-.12.32-.12.44,0,.12.12.12.31,0,.43-.12.12-.31.12-.43,0ZM28.77,46.29v-2.29h.49v2.29h-.49Z"/>
            <path class="cls-1" d="M34.58,44.89v1.4h-.49v-1.35c0-.34-.2-.53-.51-.53-.35,0-.58.21-.58.66v1.23h-.49v-2.29h.49v.29c.15-.23.38-.35.71-.35.53,0,.88.36.88.94Z"/>
            <path class="cls-1" d="M39.75,46.29h-.59l-.94-1.06v1.06h-.49v-3.2h.49v1.92l.89-1.01h.6l-1.01,1.12,1.04,1.17Z"/>
            <path class="cls-1" d="M46.51,45.79h1.42v.5h-1.94v-3.2h1.92v.5h-1.39v.83h1.28v.5h-1.28v.86Z"/>
            <path class="cls-1" d="M53.01,43.94h.49v2.29h-.49v-.33c-.19.26-.45.39-.8.39-.32,0-.58-.11-.8-.35-.22-.23-.33-.52-.33-.86s.11-.62.33-.85c.22-.23.49-.35.8-.35.35,0,.61.13.8.38v-.32ZM52.29,45.82c.21,0,.38-.07.52-.21.14-.14.21-.32.21-.53s-.07-.38-.21-.52c-.14-.14-.31-.21-.52-.21s-.38.07-.52.21c-.14.14-.21.31-.21.52s.07.38.21.53c.14.14.31.21.52.21Z"/>
            <path class="cls-1" d="M57.67,44.87c.35.08.81.22.8.71,0,.22-.09.39-.26.52-.17.12-.38.19-.64.19-.45,0-.79-.2-.93-.53l.43-.25c.08.22.25.33.51.33s.39-.09.39-.26c0-.15-.19-.23-.43-.29-.34-.09-.8-.22-.8-.7,0-.21.08-.38.24-.51.16-.13.36-.19.6-.19.38,0,.69.18.85.48l-.42.23c-.08-.17-.22-.26-.43-.26-.19,0-.33.08-.33.24,0,.15.19.23.43.3Z"/>
            <path class="cls-1" d="M63.47,43.89h.54l-.91,2.44c-.23.61-.61.9-1.15.87v-.48c.32.02.5-.14.63-.46l.02-.05-1-2.32h.56l.7,1.72.6-1.72Z"/>
            <path class="cls-1" d="M71.5,43.09c.44,0,.8.16,1.09.46.29.31.44.69.44,1.14s-.15.83-.44,1.14c-.29.31-.65.46-1.09.46h-1.26v-3.2h1.26ZM71.5,45.79c.3,0,.55-.11.74-.31.19-.21.29-.47.29-.79s-.1-.58-.29-.79c-.19-.21-.43-.31-.74-.31h-.73v2.19h.73Z"/>
            <path class="cls-1" d="M76.53,45.94c-.23-.23-.35-.52-.35-.86s.12-.62.35-.85c.23-.23.52-.35.86-.35s.62.11.85.35c.23.23.35.52.35.85s-.12.62-.35.86c-.23.23-.52.35-.85.35s-.62-.11-.86-.35ZM77.39,45.81c.2,0,.37-.07.51-.21.14-.14.21-.31.21-.52s-.07-.38-.21-.52c-.14-.14-.31-.21-.51-.21s-.37.07-.51.21c-.14.14-.21.31-.21.52s.07.38.21.52c.14.14.31.21.51.21Z"/>
            <path class="cls-1" d="M87.22,45.38c0,.26-.09.48-.28.65s-.41.26-.68.26h-1.37v-3.2h1.27c.26,0,.48.09.66.26.18.17.27.38.27.63,0,.28-.11.49-.32.65.28.15.45.41.45.75ZM85.41,43.58v.84h.75c.23,0,.41-.18.41-.42s-.18-.42-.41-.42h-.75ZM86.26,45.8c.24,0,.43-.2.43-.45s-.19-.45-.43-.45h-.85v.9h.85Z"/>
            <path class="cls-1" d="M90.88,45.3c.07.35.35.54.73.54.26,0,.46-.1.59-.28l.41.24c-.22.33-.56.5-1,.5-.37,0-.67-.11-.9-.34-.23-.23-.34-.52-.34-.86s.11-.63.34-.85c.22-.23.52-.35.87-.35.33,0,.61.12.82.35.21.23.32.52.32.86,0,.05,0,.12-.02.21h-1.82ZM92.22,44.9c-.07-.37-.33-.56-.65-.56-.37,0-.62.21-.69.56h1.34Z"/>
            <path class="cls-1" d="M97.35,44.46h-.57v1.1c0,.29.19.29.57.27v.44c-.75.09-1.06-.11-1.06-.71v-1.1h-.42v-.48h.42v-.49l.49-.15v.64h.57v.48Z"/>
            <path class="cls-1" d="M101.98,44.46h-.57v1.1c0,.29.19.29.57.27v.44c-.75.09-1.06-.11-1.06-.71v-1.1h-.42v-.48h.42v-.49l.49-.15v.64h.57v.48Z"/>
            <path class="cls-1" d="M105.64,45.3c.07.35.35.54.73.54.26,0,.46-.1.59-.28l.41.24c-.22.33-.56.5-1,.5-.37,0-.67-.11-.9-.34-.23-.23-.34-.52-.34-.86s.11-.63.34-.85c.22-.23.52-.35.87-.35.33,0,.61.12.82.35.21.23.32.52.32.86,0,.05,0,.12-.02.21h-1.82ZM106.98,44.9c-.07-.37-.33-.56-.65-.56-.37,0-.62.21-.69.56h1.34Z"/>
            <path class="cls-1" d="M111.12,44.39c.12-.28.36-.43.7-.43v.53c-.19-.01-.35.03-.49.14-.14.1-.21.27-.21.5v1.15h-.49v-2.29h.49v.38Z"/>
            <circle class="cls-3" cx="49.99" cy="35.63" r="2.13"/>
            <path class="cls-3" d="M46.1,21.54h-2.34c-.48,0-.87.39-.87.87s.39.87.87.87h2.34v2.34c0,.48.39.87.87.87s.87-.39.87-.87v-4.07h-1.73Z"/>
            <path class="cls-3" d="M48.67,18.96h-2.34c-.48,0-.87.39-.87.87s.39.87.87.87h2.34v2.34c0,.48.39.87.87.87s.87-.39.87-.87v-4.07h-1.73Z"/>
          </g>
        </g>
        <rect class="cls-2" x=".65" y=".65" width="155.32" height="65.83" rx="9.3" ry="9.3"/>
      </g>
    </g>
  </g>
</svg>