<?xml version="1.0" encoding="UTF-8"?>
<svg id="Layer_2" data-name="Layer 2" xmlns="http://www.w3.org/2000/svg" viewBox="0 0 24.96 16.57">
  <defs>
    <style>
      .cls-1 {
        fill: #fff;
      }
    </style>
  </defs>
  <g id="Layer_1-2" data-name="Layer 1">
    <g id="Top_page">
      <g>
        <path class="cls-1" d="M2.08.83h0s20.79,0,20.79,0h0s-20.8,0-20.8,0Z"/>
        <path class="cls-1" d="M23.68,0H1.21C.54,0,0,.54,0,1.21v14.23c0,.62.51,1.13,1.13,1.13h22.62c.46,0,.87-.26,1.07-.65.01-.01.02-.03.02-.04.08-.16.12-.33.12-.52V1.29c0-.71-.58-1.29-1.29-1.29ZM24.13,15.36c0,.21-.17.38-.38.38H1.13c-.16,0-.3-.13-.3-.29V1.21c0-.17.12-.31.28-.36.03-.01.07-.02.11-.02h.88,0s20.8,0,20.8,0h0s.8,0,.8,0c.08,0,.14.02.21.06.15.07.25.23.25.4v14.07Z"/>
        <path class="cls-1" d="M24.13,15.04v.31c0,.21-.17.38-.38.38h-.1l-7.29-8.5-3.09,2.54c-.23.19-.5.28-.78.28s-.56-.09-.78-.28l-3.09-2.54L1.31,15.73h-.18c-.16,0-.3-.13-.3-.29v-.39L7.98,6.72,1.36,1.29c-.14-.11-.23-.27-.26-.44.03-.01.07-.02.11-.02h.88l10.13,8.31c.16.13.38.13.54,0L22.88.83h.8c.08,0,.14.02.21.06-.03.14-.11.26-.23.35l-6.67,5.48,7.14,8.33Z"/>
        <path class="cls-1" d="M24.86,15.89l-.04.03s.02-.03.02-.04h.01Z"/>
      </g>
    </g>
  </g>
</svg>