<?xml version="1.0" encoding="UTF-8"?>
<svg id="Layer_2" data-name="Layer 2" xmlns="http://www.w3.org/2000/svg" viewBox="0 0 18.34 19.37">
  <defs>
    <style>
      .cls-1 {
        fill: #fff;
      }
    </style>
  </defs>
  <g id="Layer_1-2" data-name="Layer 1">
    <g id="Top_page">
      <path class="cls-1" d="M13.73.01c-.53.07-.95.39-1.4.75-1.11.87-1.98,2.04-2.47,3.36-.18.49-.31,1.07-.04,1.52.23.39.69.58,1.09.78s.83.51.89.96c.04.31-.11.6-.26.87-.83,1.46-1.9,2.79-3.16,3.9-.31.27-.65.54-1.06.58-.92.09-1.55-.97-2.45-1.22-.55-.15-1.15.03-1.62.36s-.83.78-1.19,1.23c-.51.65-1.03,1.29-1.54,1.94-.27.34-.56.73-.51,1.16.04.35.29.63.54.87,1.19,1.19,2.68,2.22,4.36,2.28,1.28.05,2.51-.48,3.63-1.11,2.05-1.17,3.87-2.73,5.43-4.5,1.98-2.25,3.61-4.9,4.21-7.83.23-1.11.29-2.32-.26-3.31-.39-.69-1.05-1.19-1.7-1.65-.62-.43-1.31-.87-2.08-.95-.14-.01-.27-.01-.39,0Z"/>
    </g>
  </g>
</svg>