<?xml version="1.0" encoding="UTF-8"?>
<svg id="Layer_2" data-name="Layer 2" xmlns="http://www.w3.org/2000/svg" viewBox="0 0 135.62 40.81">
  <defs>
    <style>
      .cls-1 {
        fill: #ef5628;
      }

      .cls-2 {
        fill: #fff;
      }
    </style>
  </defs>
  <g id="Layer_1-2" data-name="Layer 1">
    <g id="Top_page">
      <g id="logo">
        <path class="cls-2" d="M111.81,9.28h0c-.41-.15-.99-.32-1.69-.44-.65-.11-1.51-.24-2.59-.05-1.39.23-2.34.85-2.79,1.15-.51.34-.9.68-1.16.94,0-.72,0-1.44,0-2.16h-6.87c0,6.15,0,12.3,0,18.45,2.29,0,4.58-.02,6.87-.03,0-3.63,0-7.26,0-10.88.27-.44.87-1.26,1.94-1.83.91-.48,1.75-.56,2.1-.59.14-.01.57-.04,1.24.03.68.07,1.72.26,2.95.82h0s0,0,0,0v-5.4Z"/>
        <path class="cls-2" d="M6.86,17.7h10.74v-5.49H6.86v-3.53h11.63c0-2.05,0-4.11,0-6.16H0c0,8.21,0,16.43,0,24.64,6.16,0,12.33,0,18.49,0v-6.16H6.86c0-1.1,0-2.2,0-3.31Z"/>
        <path class="cls-2" d="M38.06,14.13c-2.5,2.56-5.01,5.12-7.51,7.67,3,0,5.99-.02,8.99-.03,0,1.8,0,3.59,0,5.39h-18.16v-4.12l8.54-8.92h-8.28c-1.02-1.03-1.4-2.36-.95-3.47.44-1.07,1.48-1.55,1.79-1.68,1.89-.78,3.91.19,5.33.63,2.05.64,5.27.94,10.2-.93.01,1.82.03,3.63.04,5.45Z"/>
        <path class="cls-2" d="M53.29,2.56h10.58c1.43,0,2.73.2,3.9.6,1.17.4,2.17.97,2.99,1.71.31.28.59.58.85.9,0,0,.63.79,1.07,1.76.88,1.97.98,5.93-.79,8.62-.42.64-.91,1.14-.97,1.2-.18.18-1,1-2.53,1.75-1.69.82-3.33,1.11-4.54,1.2h-3.71v6.88h-6.86V2.56ZM60.14,14.16h3.06c.22.01,1.33.05,2.18-.77,1.11-1.07.86-2.68.64-3.16-.25-.53-.66-.87-.66-.87,0,0-.01-.01-.02-.01-.54-.44-1.16-.5-2.12-.54-.83-.04-1.87-.05-3.08,0v5.35Z"/>
        <path class="cls-2" d="M127.03,27.17l-6.41-8v8h-6.8V.04h6.8v15.23c1.69-2.21,3.39-4.42,5.08-6.64,2.68,0,5.35,0,8.03,0-2.23,2.84-4.47,5.68-6.7,8.52l8.59,10.02h-8.59Z"/>
        <path class="cls-2" d="M93.71,26.29c-.64.55-1.45.82-2.42.82s-1.78-.27-2.4-.82c-.63-.55-.94-1.24-.94-2.1v-6.27c0-.94-.38-1.73-1.14-2.38-.76-.65-1.67-.97-2.75-.97s-1.99.33-2.73.97c-.74.65-1.12,1.44-1.12,2.38s.37,1.74,1.12,2.4c.74.66,1.66.99,2.73.99.98,0,1.78.27,2.42.82.64.55.96,1.24.96,2.1s-.32,1.56-.96,2.11c-.64.56-1.45.84-2.42.84-2.99,0-5.5-.89-7.53-2.66-2.03-1.77-3.04-3.97-3.04-6.59s1.01-4.8,3.04-6.57c.35-.3,1.12-.95,2.25-1.51,2.78-1.36,5.28-1.08,5.28-1.08.55.06,1.86.28,3.19.64,0,0,1.15.37,1.91.13,0,0,.08-.02.17-.06.43-.14.74-.25.79-.27.71-.25,1.32-.47,1.94-.48.2,0,1.37-.03,2.05.78.55.64.57,1.55.58,1.96,0,0,0,0,0,1.07v2.35c0,.33,0,.66,0,1,0,1.28,0,1.42,0,2.05,0,.14,0,.39,0,.7,0,.61,0,1.19,0,2.2,0,.79,0,.61,0,.95,0,.45,0,1.52,0,2.38,0,.03,0,.06,0,.09-.02.58-.22,1.01-.29,1.15-.24.47-.55.75-.69.88Z"/>
        <path class="cls-2" d="M3.37,34.87v.73h-1.3v3.9h-.76v-3.9H0v-.73h3.37Z"/>
        <path class="cls-2" d="M10.93,37.47v2.03h-.71v-1.96c0-.5-.28-.77-.74-.77-.5,0-.84.31-.84.95v1.77h-.71v-4.63h.71v1.74c.22-.34.56-.51,1.02-.51.76,0,1.27.52,1.27,1.36Z"/>
        <path class="cls-2" d="M15.6,35.68c-.17-.18-.17-.45,0-.63.18-.18.46-.18.63,0,.17.18.17.44,0,.63-.18.17-.44.17-.63,0ZM15.56,39.5v-3.3h.71v3.3h-.71Z"/>
        <path class="cls-2" d="M23.96,37.47v2.03h-.71v-1.96c0-.5-.28-.77-.74-.77-.5,0-.84.31-.84.95v1.77h-.71v-3.3h.71v.42c.22-.34.56-.51,1.02-.51.76,0,1.27.52,1.27,1.36Z"/>
        <path class="cls-2" d="M31.43,39.5h-.85l-1.35-1.53v1.53h-.71v-4.63h.71v2.78l1.28-1.46h.87l-1.45,1.62,1.51,1.69Z"/>
        <path class="cls-2" d="M41.2,38.77h2.05v.73h-2.81v-4.63h2.78v.73h-2.02v1.2h1.85v.72h-1.85v1.25Z"/>
        <path class="cls-2" d="M50.6,36.11h.71v3.3h-.71v-.48c-.27.38-.65.56-1.16.56-.46,0-.84-.16-1.16-.5-.32-.34-.48-.75-.48-1.24s.16-.9.48-1.24c.32-.34.71-.5,1.16-.5.5,0,.89.19,1.16.56v-.47ZM49.56,38.82c.3,0,.55-.1.75-.3.2-.2.3-.46.3-.76s-.1-.56-.3-.75c-.2-.21-.45-.3-.75-.3s-.55.1-.75.3c-.2.2-.3.45-.3.75s.1.56.3.76c.2.2.45.3.75.3Z"/>
        <path class="cls-2" d="M57.33,37.45c.51.11,1.17.32,1.16,1.03,0,.32-.13.57-.37.75-.24.18-.55.27-.92.27-.65,0-1.14-.29-1.35-.77l.61-.36c.11.32.36.48.73.48s.56-.13.56-.37c0-.21-.28-.34-.63-.42-.5-.13-1.16-.32-1.15-1.02,0-.3.11-.55.34-.73.23-.19.52-.28.87-.28.55,0,.99.26,1.22.69l-.6.34c-.11-.25-.32-.38-.62-.38-.27,0-.48.12-.48.35,0,.22.28.33.62.43Z"/>
        <path class="cls-2" d="M65.72,36.02h.79l-1.31,3.52c-.33.88-.88,1.3-1.67,1.26v-.69c.46.03.72-.2.91-.67l.03-.07-1.45-3.35h.81l1.02,2.48.87-2.48Z"/>
        <path class="cls-2" d="M77.32,34.87c.63,0,1.16.22,1.58.67.42.44.63.99.63,1.65s-.21,1.2-.63,1.65c-.42.44-.95.67-1.58.67h-1.82v-4.63h1.82ZM77.32,38.77c.44,0,.79-.15,1.06-.45.28-.3.42-.68.42-1.14s-.14-.84-.42-1.14c-.27-.3-.63-.45-1.06-.45h-1.06v3.17h1.06Z"/>
        <path class="cls-2" d="M84.59,39c-.34-.34-.51-.75-.51-1.24s.17-.9.51-1.24c.34-.34.75-.5,1.24-.5s.9.17,1.24.5c.34.34.51.75.51,1.24s-.17.9-.51,1.24c-.34.34-.75.5-1.24.5s-.9-.16-1.24-.5ZM85.83,38.8c.29,0,.54-.1.73-.3.2-.2.3-.45.3-.75s-.1-.55-.3-.75c-.2-.2-.44-.3-.73-.3s-.54.1-.73.3c-.2.2-.3.45-.3.75s.1.55.3.75c.2.2.44.3.73.3Z"/>
        <path class="cls-2" d="M100.04,38.18c0,.38-.13.69-.4.95s-.59.38-.98.38h-1.98v-4.63h1.84c.38,0,.7.13.96.37.26.24.4.55.4.91,0,.4-.16.71-.47.95.4.21.65.59.65,1.08ZM97.43,35.58v1.22h1.08c.34,0,.59-.26.59-.61s-.26-.61-.59-.61h-1.08ZM98.66,38.78c.35,0,.63-.28.63-.65s-.28-.65-.63-.65h-1.22v1.3h1.22Z"/>
        <path class="cls-2" d="M105.34,38.06c.11.5.51.78,1.06.78.38,0,.66-.14.85-.41l.59.34c-.32.48-.81.72-1.45.72-.54,0-.97-.16-1.3-.49-.33-.33-.5-.75-.5-1.25s.16-.91.49-1.24c.32-.34.75-.5,1.26-.5.48,0,.88.17,1.19.51.31.34.47.75.47,1.24,0,.07,0,.17-.03.3h-2.63ZM107.28,37.48c-.1-.54-.48-.81-.95-.81-.53,0-.9.31-1,.81h1.94Z"/>
        <path class="cls-2" d="M114.69,36.85h-.82v1.59c0,.42.28.42.82.39v.64c-1.09.13-1.53-.17-1.53-1.03v-1.59h-.61v-.69h.61v-.71l.71-.21v.93h.82v.69Z"/>
        <path class="cls-2" d="M121.38,36.85h-.82v1.59c0,.42.28.42.82.39v.64c-1.09.13-1.53-.17-1.53-1.03v-1.59h-.61v-.69h.61v-.71l.71-.21v.93h.82v.69Z"/>
        <path class="cls-2" d="M126.67,38.06c.11.5.51.78,1.06.78.38,0,.66-.14.85-.41l.59.34c-.32.48-.81.72-1.45.72-.54,0-.97-.16-1.3-.49-.33-.33-.5-.75-.5-1.25s.16-.91.49-1.24c.32-.34.75-.5,1.26-.5.48,0,.88.17,1.19.51.31.34.47.75.47,1.24,0,.07,0,.17-.03.3h-2.63ZM128.61,37.48c-.1-.54-.48-.81-.95-.81-.53,0-.9.31-1,.81h1.94Z"/>
        <path class="cls-2" d="M134.59,36.75c.18-.41.52-.61,1.02-.61v.77c-.27-.02-.51.05-.71.2-.2.15-.3.39-.3.73v1.67h-.71v-3.3h.71v.56Z"/>
        <circle class="cls-2" cx="46.23" cy="24.09" r="3.08"/>
        <path class="cls-1" d="M40.61,3.72h-3.38c-.69,0-1.25.56-1.25,1.25s.56,1.25,1.25,1.25h3.38v3.38c0,.69.56,1.25,1.25,1.25s1.25-.56,1.25-1.25V3.72h-2.5Z"/>
        <path class="cls-1" d="M44.33,0h-3.38c-.69,0-1.25.56-1.25,1.25s.56,1.25,1.25,1.25h3.38v3.38c0,.69.56,1.25,1.25,1.25s1.25-.56,1.25-1.25V0h-2.5Z"/>
      </g>
    </g>
  </g>
</svg>