<?xml version="1.0" encoding="UTF-8"?>
<svg id="Layer_2" data-name="Layer 2" xmlns="http://www.w3.org/2000/svg" viewBox="0 0 94.91 95.02">
  <defs>
    <style>
      .cls-1 {
        fill: #f05628;
      }
    </style>
  </defs>
  <g id="Layer_1-2" data-name="Layer 1">
    <g id="Top_page">
      <g>
        <path class="cls-1" d="M9.68,4.84c0,2.67-2.17,4.84-4.84,4.84S0,7.51,0,4.84,2.17,0,4.84,0s4.84,2.17,4.84,4.84"/>
        <path class="cls-1" d="M30.97,4.84c0,2.67-2.17,4.84-4.84,4.84s-4.84-2.17-4.84-4.84S23.45,0,26.13,0s4.84,2.17,4.84,4.84"/>
        <path class="cls-1" d="M52.25,4.84c0,2.67-2.17,4.84-4.84,4.84s-4.84-2.17-4.84-4.84,2.17-4.84,4.84-4.84,4.84,2.17,4.84,4.84"/>
        <path class="cls-1" d="M73.54,4.84c0,2.67-2.17,4.84-4.84,4.84s-4.84-2.17-4.84-4.84,2.17-4.84,4.84-4.84,4.84,2.17,4.84,4.84"/>
        <path class="cls-1" d="M94.91,4.84c0,2.67-2.17,4.84-4.84,4.84s-4.84-2.17-4.84-4.84,2.17-4.84,4.84-4.84,4.84,2.17,4.84,4.84"/>
        <path class="cls-1" d="M9.68,26.25c0,2.67-2.17,4.84-4.84,4.84S0,28.92,0,26.25s2.17-4.84,4.84-4.84,4.84,2.17,4.84,4.84"/>
        <path class="cls-1" d="M30.97,26.25c0,2.67-2.17,4.84-4.84,4.84s-4.84-2.17-4.84-4.84,2.17-4.84,4.84-4.84,4.84,2.17,4.84,4.84"/>
        <path class="cls-1" d="M52.25,26.25c0,2.67-2.17,4.84-4.84,4.84s-4.84-2.17-4.84-4.84,2.17-4.84,4.84-4.84,4.84,2.17,4.84,4.84"/>
        <path class="cls-1" d="M73.54,26.25c0,2.67-2.17,4.84-4.84,4.84s-4.84-2.17-4.84-4.84,2.17-4.84,4.84-4.84,4.84,2.17,4.84,4.84"/>
        <path class="cls-1" d="M94.91,26.25c0,2.67-2.17,4.84-4.84,4.84s-4.84-2.17-4.84-4.84,2.17-4.84,4.84-4.84,4.84,2.17,4.84,4.84"/>
        <path class="cls-1" d="M9.68,47.65c0,2.67-2.17,4.84-4.84,4.84s-4.84-2.17-4.84-4.84,2.17-4.84,4.84-4.84,4.84,2.17,4.84,4.84"/>
        <path class="cls-1" d="M30.97,47.65c0,2.67-2.17,4.84-4.84,4.84s-4.84-2.17-4.84-4.84,2.17-4.84,4.84-4.84,4.84,2.17,4.84,4.84"/>
        <path class="cls-1" d="M52.25,47.65c0,2.67-2.17,4.84-4.84,4.84s-4.84-2.17-4.84-4.84,2.17-4.84,4.84-4.84,4.84,2.17,4.84,4.84"/>
        <path class="cls-1" d="M73.54,47.65c0,2.67-2.17,4.84-4.84,4.84s-4.84-2.17-4.84-4.84,2.17-4.84,4.84-4.84,4.84,2.17,4.84,4.84"/>
        <path class="cls-1" d="M94.91,47.65c0,2.67-2.17,4.84-4.84,4.84s-4.84-2.17-4.84-4.84,2.17-4.84,4.84-4.84,4.84,2.17,4.84,4.84"/>
        <path class="cls-1" d="M9.68,68.94c0,2.67-2.17,4.84-4.84,4.84s-4.84-2.17-4.84-4.84,2.17-4.84,4.84-4.84,4.84,2.17,4.84,4.84"/>
        <path class="cls-1" d="M30.97,68.94c0,2.67-2.17,4.84-4.84,4.84s-4.84-2.17-4.84-4.84,2.17-4.84,4.84-4.84,4.84,2.17,4.84,4.84"/>
        <path class="cls-1" d="M52.25,68.94c0,2.67-2.17,4.84-4.84,4.84s-4.84-2.17-4.84-4.84,2.17-4.84,4.84-4.84,4.84,2.17,4.84,4.84"/>
        <path class="cls-1" d="M73.54,68.94c0,2.67-2.17,4.84-4.84,4.84s-4.84-2.17-4.84-4.84,2.17-4.84,4.84-4.84,4.84,2.17,4.84,4.84"/>
        <path class="cls-1" d="M94.91,68.94c0,2.67-2.17,4.84-4.84,4.84s-4.84-2.17-4.84-4.84,2.17-4.84,4.84-4.84,4.84,2.17,4.84,4.84"/>
        <path class="cls-1" d="M9.68,90.18c0,2.67-2.17,4.84-4.84,4.84s-4.84-2.17-4.84-4.84,2.17-4.84,4.84-4.84,4.84,2.17,4.84,4.84"/>
        <path class="cls-1" d="M30.97,90.18c0,2.67-2.17,4.84-4.84,4.84s-4.84-2.17-4.84-4.84,2.17-4.84,4.84-4.84,4.84,2.17,4.84,4.84"/>
        <path class="cls-1" d="M52.25,90.18c0,2.67-2.17,4.84-4.84,4.84s-4.84-2.17-4.84-4.84,2.17-4.84,4.84-4.84,4.84,2.17,4.84,4.84"/>
        <path class="cls-1" d="M73.54,90.18c0,2.67-2.17,4.84-4.84,4.84s-4.84-2.17-4.84-4.84,2.17-4.84,4.84-4.84,4.84,2.17,4.84,4.84"/>
        <path class="cls-1" d="M94.91,90.18c0,2.67-2.17,4.84-4.84,4.84s-4.84-2.17-4.84-4.84,2.17-4.84,4.84-4.84,4.84,2.17,4.84,4.84"/>
      </g>
    </g>
  </g>
</svg>