<?xml version="1.0" encoding="UTF-8"?>
<svg id="Layer_2" data-name="Layer 2" xmlns="http://www.w3.org/2000/svg" viewBox="0 0 40.71 41.38">
  <defs>
    <style>
      .cls-1 {
        fill: #fff;
        fill-rule: evenodd;
      }

      .cls-2 {
        opacity: .6;
      }
    </style>
  </defs>
  <g id="Layer_1-2" data-name="Layer 1">
    <g id="Top_page">
      <g class="cls-2">
        <path class="cls-1" d="M21.07,39.27c-.37,0-.66-.29-.66-.66v-15.84c0-.37.29-.66.66-.66s.66.29.66.66v15.84c0,.37-.29.67-.66.66"/>
        <path class="cls-1" d="M21.07,17.16c-.37,0-.66-.29-.66-.66V.66c0-.37.29-.66.66-.66s.66.29.66.66v15.84c0,.37-.29.66-.66.66"/>
        <path class="cls-1" d="M17.93,20.3H2.09c-.37,0-.66-.29-.66-.66s.29-.66.66-.66h15.84c.37,0,.66.29.66.66,0,.36-.29.66-.66.66"/>
        <path class="cls-1" d="M40.05,20.3h-15.84c-.37,0-.66-.29-.66-.66s.29-.66.66-.66h15.84c.37,0,.66.29.66.66,0,.36-.3.66-.66.66"/>
        <path class="cls-1" d="M13.11,25.96L0,30.95l2.57,2.57,6.12-1.64c.22-.07.47,0,.63.17.17.17.24.41.17.63l-1.64,6.12,2.57,2.58,3.44-9.06c.01-.05.03-.11.05-.16,0-.01.01-.01.01-.03l1.52-4.01s.03-.08.04-.12l1.33-3.48-3.72,1.43s.01,0,0,0"/>
        <path class="cls-1" d="M20.41,30.27c-1.35-.08-2.69-.43-3.94-1.04l-1.1,2.9c1.62.74,3.32,1.14,5.05,1.24v-3.1Z"/>
        <path class="cls-1" d="M23.03,28.77c.17-.04.34-.08.51-.12,2.4-.66,4.41-2.21,5.66-4.37.49-.85.83-1.76,1.02-2.67h-6.03c-1.08,0-1.96-.88-1.96-1.96s.88-1.96,1.96-1.96h6.02c-.54-2.51-2.1-4.79-4.49-6.16-.85-.49-1.76-.83-2.69-1.04v6.03c0,1.08-.88,1.96-1.96,1.96s-1.96-.88-1.96-1.96v-6.04c-.16.04-.31.08-.47.12-2.4.66-4.41,2.21-5.66,4.37-.49.85-.83,1.76-1.02,2.69h5.99c1.08,0,1.96.88,1.96,1.96s-.88,1.96-1.96,1.96h-5.98c.22,1.04.62,2.04,1.18,2.96l4.61-1.76c.24-.09.51-.04.7.14.18.18.24.46.14.7l-1.66,4.36c.7.34,1.42.6,2.17.76v-6c0-1.08.88-1.96,1.96-1.96s1.96.88,1.96,1.96v6.03Z"/>
        <path class="cls-1" d="M30.34,24.92c-1.42,2.47-3.7,4.24-6.45,4.99-.29.08-.56.15-.85.2v3.14c.77-.12,1.54-.29,2.29-.54,3.5-1.14,6.33-3.56,8-6.84.7-1.37,1.14-2.8,1.37-4.27h-3.11c-.22,1.16-.64,2.27-1.24,3.32"/>
        <path class="cls-1" d="M7.45,21.6c.22,1.56.74,3.1,1.51,4.55l2.94-1.12c-.63-1.08-1.05-2.23-1.28-3.43h-3.18Z"/>
        <path class="cls-1" d="M8.81,13.4c-.7,1.37-1.14,2.81-1.37,4.27h3.17c.21-1.16.62-2.29,1.22-3.34,1.42-2.47,3.71-4.24,6.45-4.99.28-.08.55-.13.81-.18v-3.14c-.77.12-1.54.29-2.3.54-3.48,1.14-6.32,3.57-7.99,6.84"/>
        <path class="cls-1" d="M31.37,16.83c.08.28.14.56.2.84h3.11c-.12-.77-.29-1.54-.54-2.3-1.14-3.49-3.56-6.33-6.84-8-1.37-.7-2.8-1.14-4.27-1.37v3.13c1.16.21,2.29.63,3.35,1.24,2.47,1.42,4.24,3.72,4.99,6.46"/>
      </g>
    </g>
  </g>
</svg>