<?xml version="1.0" encoding="UTF-8"?>
<svg id="Layer_2" data-name="Layer 2" xmlns="http://www.w3.org/2000/svg" viewBox="0 0 34.62 34.31">
  <defs>
    <style>
      .cls-1 {
        fill: #fff;
      }

      .cls-2 {
        opacity: .6;
      }
    </style>
  </defs>
  <g id="Layer_1-2" data-name="Layer 1">
    <g id="Top_page">
      <g class="cls-2">
        <path class="cls-1" d="M0,21.33s.07-.02.09-.02c.64,0,1.28,0,1.93,0,.02.06.05.1.06.15.28.94.64,1.86,1.1,2.72.6,1.1,1.3,2.13,2.14,3.05.63.69,1.32,1.33,2.06,1.9,1.43,1.11,3.01,1.94,4.72,2.51.98.33,1.99.53,3.02.65.92.11,1.84.15,2.76.12.69-.02,1.38-.09,2.07-.2.66-.11,1.32-.23,1.97-.41,1.26-.34,2.46-.82,3.59-1.47,1.56-.9,2.93-2.03,4.1-3.41.71-.84,1.33-1.75,1.85-2.72.45-.83.8-1.71,1.06-2.62.02-.07.04-.14.06-.21,0-.01.02-.02.04-.05.15-.02.32,0,.49,0,.16,0,.32,0,.49,0s.34,0,.51,0c.16,0,.32-.02.49.02,0,.05-.01.09-.02.14-.22.84-.51,1.66-.86,2.46-.68,1.54-1.58,2.93-2.66,4.21-.61.72-1.27,1.37-1.99,1.98-.7.6-1.45,1.14-2.24,1.62-.84.51-1.72.94-2.63,1.3-1.14.45-2.31.77-3.51.98-.81.14-1.62.22-2.44.27-.7.04-1.4.04-2.1-.01-.52-.04-1.04-.1-1.56-.17-.79-.1-1.57-.28-2.33-.49-1.26-.35-2.47-.84-3.62-1.46-.85-.46-1.66-.99-2.42-1.59-1.11-.87-2.12-1.85-3.01-2.95-.91-1.12-1.66-2.33-2.25-3.64-.37-.81-.7-1.64-.92-2.51-.01-.04-.02-.08-.02-.13"/>
        <path class="cls-1" d="M17.15,22.19c-.89,0-1.73-.21-2.48-.68-1.22-.76-1.97-1.86-2.24-3.28-.19-1.03-.07-2.02.39-2.95.69-1.39,1.8-2.28,3.32-2.61,2.13-.47,4.23.61,5.2,2.38.27.49.46,1.01.56,1.55.07.38.08.76.05,1.15-.06.7-.25,1.36-.6,1.97-.7,1.21-1.72,2-3.08,2.34-.37.09-.74.12-1.12.12"/>
        <path class="cls-1" d="M3.5,9.25c-.26.03-1.86.03-2.04,0-.02-.07.03-.12.06-.18.33-.61.7-1.2,1.11-1.76.76-1.06,1.64-2.02,2.62-2.87,1.02-.88,2.13-1.66,3.33-2.28,1.16-.6,2.36-1.11,3.62-1.46.84-.23,1.69-.4,2.56-.52C15.83.03,16.9-.03,17.97.01c.35.01.71.04,1.06.07.37.04.75.08,1.12.13.65.09,1.29.22,1.93.38,1.66.42,3.21,1.07,4.68,1.94,1.47.88,2.79,1.95,3.96,3.2.88.94,1.62,1.97,2.25,3.09.07.12.13.25.19.36-.05.07-.12.05-.17.05-.57,0-1.14,0-1.7,0h-.24c-.05-.07-.09-.13-.13-.19-.71-1.15-1.57-2.19-2.57-3.12-.57-.53-1.18-1.03-1.82-1.47-1.16-.8-2.41-1.42-3.75-1.86-1-.33-2.02-.55-3.06-.69-1.25-.18-2.51-.2-3.78-.11-1.73.12-3.39.52-5,1.16-.8.32-1.55.72-2.29,1.15-.94.55-1.78,1.23-2.58,1.97-.77.71-1.46,1.5-2.05,2.37-.15.23-.3.46-.44.69-.02.04-.05.07-.07.1"/>
        <path class="cls-1" d="M32.49,17.01v.8c-.07.06-.14.04-.2.04-.5,0-1,0-1.5,0-2.51,0-5.03,0-7.54,0-.11,0-.22,0-.33,0-.06-.14-.03-.29-.04-.42,0-.14,0-.28,0-.43.06-.01.11-.03.16-.03.12,0,.24,0,.35,0,2.93,0,5.85,0,8.78,0,.1,0,.21-.01.32.03"/>
        <path class="cls-1" d="M11.42,17c.04.2.04.68,0,.83-.02,0-.04.02-.06.02-3.06,0-6.12,0-9.18,0-.03,0-.06,0-.08-.01-.04-.17-.05-.64,0-.84.08-.05.17-.03.26-.03,1.51,0,3.01,0,4.52,0,1.44,0,2.88,0,4.32,0,.08,0,.16-.02.24.02"/>
        <path class="cls-1" d="M16.72,2.66c.27-.05.6-.04.8.01,0,.02.02.04.02.06,0,2.98,0,5.96,0,8.93,0,.03,0,.06-.01.08-.15.05-.5.05-.77.01-.05-.05-.04-.12-.04-.19,0-.36,0-.72,0-1.08,0-2.45,0-4.91,0-7.36,0-.15,0-.31,0-.47"/>
        <path class="cls-1" d="M16.72,23.04c.21-.04.59-.04.8,0,0,.05.02.11.02.17,0,.46,0,.93,0,1.39,0,2.07,0,4.13,0,6.2,0,.18,0,.35,0,.53,0,.06,0,.12-.01.17-.16.05-.52.05-.77.02-.05-.06-.03-.14-.03-.21,0-.32,0-.63,0-.95,0-2.37,0-4.74,0-7.1v-.21"/>
        <path class="cls-1" d="M9.53,10.46c.14-.19.44-.48.61-.59.08.03.13.09.18.15.7.7,1.41,1.4,2.11,2.11.27.27.54.54.81.81.06.06.13.12.17.2-.09.12-.46.5-.6.61-.04-.03-.08-.05-.12-.09-.31-.31-.62-.61-.92-.92-.73-.73-1.45-1.46-2.18-2.19-.02-.02-.05-.05-.07-.08"/>
        <path class="cls-1" d="M20.82,21.61c.12-.16.43-.46.61-.58.07.02.12.09.18.15.95.95,1.9,1.89,2.85,2.84.07.07.13.14.2.2-.08.14-.43.49-.62.62,0,0-.01,0-.02,0,0,0-.01,0-.02,0-.9-.9-1.81-1.8-2.71-2.7-.15-.15-.28-.3-.42-.45-.02-.02-.03-.04-.04-.05,0,0,0-.01,0-.02"/>
        <path class="cls-1" d="M12.73,21.01c.17.12.5.44.62.58-.02.03-.04.07-.07.1-.96.98-1.92,1.95-2.89,2.93-.09.09-.17.19-.28.26-.21-.18-.42-.37-.62-.58.04-.05.07-.09.1-.13.59-.6,1.18-1.19,1.77-1.79.35-.36.7-.71,1.05-1.07.1-.1.2-.19.31-.3"/>
        <path class="cls-1" d="M21.49,13.74c-.2-.19-.39-.37-.57-.54,0-.09.07-.12.11-.17.54-.55,1.09-1.1,1.63-1.65.45-.46.91-.93,1.36-1.39.02-.03.05-.05.09-.08.14.05.22.17.32.26.11.09.2.19.31.29-.03.09-.1.14-.15.2-.26.26-.52.53-.78.79-.72.71-1.43,1.43-2.15,2.14-.05.05-.11.1-.18.17"/>
      </g>
    </g>
  </g>
</svg>