<svg width="116" height="116" viewBox="0 0 116 116" fill="none" xmlns="http://www.w3.org/2000/svg">
<path d="M74.1102 87.21H57.9202C57.4902 87.21 57.1202 86.8699 57.1002 86.4399C56.8802 83.6199 56.2302 69.3599 64.5002 65.8899C64.8602 65.6999 69.5402 63.3099 72.2302 60.4199C72.4502 60.1799 72.6602 59.94 72.9002 59.7C74.6302 57.77 76.8002 55.3898 79.4102 55.3098C79.8902 55.2898 80.3702 55.36 80.8302 55.5V43.3298C80.8302 40.8498 82.8502 38.7998 85.3602 38.7998H86.9002C88.5402 38.7998 89.8602 40.13 89.8602 41.76V59.8098C89.8802 62.4398 89.8402 62.9698 88.3902 65.7898C86.1302 70.1498 84.0502 71.9098 81.1602 74.3398C80.2202 75.1398 79.1602 76.0299 78.0002 77.1099C76.4802 78.5099 74.7002 81.2498 74.9202 86.2898C74.9202 86.5098 74.8502 86.7499 74.6802 86.8899C74.5602 87.1099 74.3402 87.2 74.1002 87.2L74.1102 87.21ZM58.7102 85.5498H73.2601C73.2401 80.4198 75.1902 77.4999 76.9002 75.9399C78.1002 74.8299 79.1602 73.9199 80.1302 73.1199C82.9702 70.7299 84.8302 69.1398 86.9501 65.0698C88.2501 62.5398 88.2502 62.2699 88.2502 59.8699V41.7998C88.2502 41.0798 87.6701 40.5 86.9501 40.5H85.4102C83.8402 40.5 82.5702 41.7798 82.5702 43.3398V56.4199C82.7602 56.5599 82.9602 56.7299 83.1502 56.9299C84.0702 57.8499 84.8102 58.54 84.7902 59.48C84.7902 60.28 84.2602 60.95 83.4202 61.77L75.6102 69.1399C75.2702 69.4499 74.7402 69.4499 74.4302 69.1199C74.1202 68.7899 74.1201 68.2499 74.4501 67.9399L82.2102 60.5698C82.9602 59.8498 83.0802 59.58 83.0802 59.49C83.0802 59.25 82.3602 58.5499 81.9202 58.1199C81.7302 57.9299 81.5302 57.7599 81.3402 57.6099C81.2402 57.5599 81.1702 57.5099 81.1002 57.4399C80.5702 57.0999 80.0402 56.93 79.4902 56.96C77.6102 57.01 75.7102 59.0998 74.1602 60.7898C73.9202 61.0598 73.7002 61.2998 73.4902 61.5398C70.4802 64.7698 65.4702 67.2699 65.2502 67.3699C65.2302 67.3699 65.2302 67.3899 65.2002 67.3899C62.1602 68.6399 60.1602 71.87 59.2202 76.96C58.5702 80.45 58.6402 83.8798 58.7102 85.5598V85.5498Z" fill="white"/>
<path d="M57.7302 87.21H41.5402C41.3202 87.21 41.1102 87.1099 40.9402 86.9399C40.7702 86.7699 40.7002 86.5498 40.7002 86.3398C40.9202 81.2998 39.1602 78.5599 37.6202 77.1599C36.4402 76.0799 35.3802 75.1799 34.4602 74.3899C31.5902 71.9599 29.5002 70.1998 27.2302 65.8398C25.7602 63.0198 25.7402 62.4899 25.7402 59.8599V41.8098C25.7402 40.1698 27.0702 38.8499 28.7002 38.8499H30.2402C32.7202 38.8499 34.7702 40.8699 34.7702 43.3799V55.5498C35.2302 55.4098 35.7102 55.3299 36.1902 55.3599C38.7902 55.4299 40.9602 57.82 42.7002 59.75C42.9402 60.02 43.1602 60.26 43.3702 60.47C46.0902 63.36 50.7402 65.7499 51.1002 65.9399C59.3602 69.4099 58.7102 83.67 58.5002 86.49C58.5202 86.88 58.1602 87.21 57.7302 87.21ZM42.4002 85.5498H56.9502C57.0502 83.8598 57.0902 80.47 56.4402 77C55.5002 71.92 53.5002 68.6899 50.4602 67.4299C50.4402 67.4299 50.4402 67.4099 50.4102 67.4099C50.1902 67.3099 45.1802 64.8098 42.1702 61.5798C41.9502 61.3398 41.7102 61.0998 41.5002 60.8298C39.9602 59.1398 38.0502 57.05 36.1702 57C35.6202 56.98 35.0902 57.14 34.5602 57.48C34.4902 57.55 34.4203 57.5999 34.3203 57.6499C34.1303 57.7899 33.9302 57.9599 33.7402 58.1599C33.3102 58.5899 32.5802 59.29 32.5802 59.53C32.5802 59.63 32.7002 59.8899 33.4502 60.6099L41.2102 67.96C41.5502 68.27 41.5502 68.7999 41.2302 69.1399C40.9102 69.4799 40.3902 69.4799 40.0502 69.1599L32.2902 61.7898C31.4502 60.9698 30.9202 60.3 30.9202 59.5C30.9202 58.56 31.6402 57.84 32.5602 56.95C32.7502 56.76 32.9502 56.5899 33.1402 56.4399V43.3599C33.1402 41.7899 31.8602 40.52 30.3002 40.52H28.7602C28.0402 40.52 27.4602 41.0998 27.4602 41.8198V59.8899C27.4402 62.2999 27.4402 62.5598 28.7602 65.0898C30.8802 69.1598 32.7402 70.7499 35.5802 73.1399C36.5202 73.9399 37.6002 74.85 38.8102 75.96C40.4702 77.48 42.4202 80.3898 42.4002 85.5498Z" fill="white"/>
<path d="M55.3207 60.4199C46.5707 60.4199 39.4707 53.3098 39.4707 44.5698C39.4707 35.8298 46.5807 28.72 55.3207 28.72C58.6707 28.72 61.8707 29.76 64.6007 31.71C64.9607 31.98 65.0607 32.4598 64.8207 32.8198C64.2907 33.6598 64.0207 34.6298 64.0207 35.5898C64.0207 38.5098 66.3807 40.8699 69.3007 40.8699C69.5207 40.8699 69.7607 40.8498 69.9707 40.8198C70.4007 40.7698 70.8107 41.06 70.8907 41.49C71.0807 42.5 71.1807 43.5398 71.1807 44.5698C71.1807 53.3198 64.0707 60.4199 55.3307 60.4199H55.3207ZM55.3207 30.3499C47.4907 30.3499 41.1307 36.7098 41.1307 44.5398C41.1307 52.3698 47.4907 58.73 55.3207 58.73C63.1507 58.73 69.5107 52.3698 69.5107 44.5398C69.5107 43.8698 69.4607 43.17 69.3707 42.49C65.5107 42.54 62.3607 39.4098 62.3607 35.5498C62.3607 34.5098 62.5807 33.4998 63.0107 32.5898C60.7207 31.1398 58.0707 30.3499 55.3207 30.3499Z" fill="white"/>
<path d="M70.3504 45.3899H40.2804C39.8204 45.3899 39.4404 45.0298 39.4404 44.5498C39.4404 44.0698 39.8004 43.71 40.2804 43.71H70.3504C70.8104 43.71 71.1904 44.0698 71.1904 44.5498C71.1704 45.0298 70.8004 45.3899 70.3504 45.3899Z" fill="white"/>
<path d="M55.3206 60.4199C51.2006 60.4199 47.3005 58.85 44.3305 55.99C44.1605 55.82 44.0605 55.5999 44.0605 55.3899C44.0605 55.1799 44.1605 54.9598 44.3305 54.7898C47.2905 51.9498 51.2006 50.3599 55.3206 50.3599C59.4406 50.3599 63.3405 51.9298 66.3105 54.7898C66.4805 54.9598 66.5805 55.1799 66.5805 55.3899C66.5805 55.5999 66.4805 55.82 66.3105 55.99C63.3505 58.86 59.4406 60.4199 55.3206 60.4199ZM46.1405 55.3799C48.6905 57.5499 51.9206 58.73 55.3206 58.73C58.7206 58.73 61.9205 57.5499 64.5005 55.3799C61.9506 53.2099 58.7206 52.03 55.3206 52.03C51.9206 52.03 48.7205 53.2099 46.1405 55.3799Z" fill="white"/>
<path d="M55.3206 38.73C51.2006 38.73 47.3005 37.1598 44.3305 34.2998C44.1605 34.1298 44.0605 33.91 44.0605 33.7C44.0605 33.49 44.1605 33.2699 44.3305 33.0999C47.2905 30.2599 51.2006 28.6699 55.3206 28.6699C58.6706 28.6699 61.8705 29.7099 64.6005 31.6599C64.9605 31.9299 65.0606 32.41 64.8206 32.77C64.2906 33.61 64.0205 34.5798 64.0205 35.5398V35.6399C64.0205 35.9299 63.8806 36.2199 63.6306 36.3599C61.1206 37.9299 58.2606 38.75 55.3206 38.75V38.73ZM46.1405 33.7C48.6905 35.87 51.9206 37.0498 55.3206 37.0498C57.8006 37.0498 60.2405 36.3999 62.3605 35.1699C62.4105 34.2799 62.6305 33.3898 63.0105 32.5898C60.7205 31.0998 58.0706 30.3298 55.3206 30.3298C51.9506 30.3498 48.7205 31.53 46.1405 33.7Z" fill="white"/>
<path d="M55.3206 60.4199C53.4206 60.4199 51.7105 58.66 50.5005 55.48C49.3905 52.54 48.7705 48.6598 48.7705 44.5598C48.7705 40.4598 49.4005 36.5799 50.5005 33.6399C51.7305 30.4599 53.4406 28.7 55.3206 28.7C57.2006 28.7 58.9305 30.4599 60.1405 33.6399C61.2705 36.5799 61.8705 40.4598 61.8705 44.5598C61.8705 48.6598 61.2405 52.54 60.1405 55.48C58.9405 58.66 57.2206 60.4199 55.3206 60.4199ZM55.3206 30.3499C53.0106 30.3499 50.4305 36.1798 50.4305 44.5398C50.4305 52.8998 53.0106 58.73 55.3206 58.73C57.6306 58.73 60.2105 52.8998 60.2105 44.5398C60.2105 36.1798 57.6306 30.3499 55.3206 30.3499Z" fill="white"/>
<path d="M69.2906 42.52C65.4606 42.52 62.3506 39.4098 62.3506 35.5798C62.3506 31.7498 65.4606 28.6399 69.2906 28.6399C73.1206 28.6399 76.2306 31.7498 76.2306 35.5798C76.2306 39.4098 73.1006 42.52 69.2906 42.52ZM69.2906 30.2998C66.3706 30.2998 64.0106 32.6598 64.0106 35.5798C64.0106 38.4998 66.3706 40.8599 69.2906 40.8599C72.2106 40.8599 74.5706 38.4998 74.5706 35.5798C74.5706 32.6598 72.1806 30.2998 69.2906 30.2998Z" fill="white"/>
<path d="M69.2902 36.4199C67.9902 36.4199 66.9502 35.3598 66.9502 34.0798C66.9502 32.7998 67.9902 31.74 69.2902 31.74C70.5902 31.74 71.6302 32.7998 71.6302 34.0798C71.6302 34.5398 71.2702 34.9199 70.7902 34.9199C70.3102 34.9199 69.9502 34.5598 69.9502 34.0798C69.9502 33.7198 69.6402 33.4099 69.2802 33.4099C68.9202 33.4099 68.6102 33.7198 68.6102 34.0798C68.6102 34.4398 68.9202 34.75 69.2802 34.75C69.7402 34.75 70.1202 35.1098 70.1202 35.5898C70.1202 36.0198 69.7602 36.4099 69.3002 36.4099L69.2902 36.4199Z" fill="white"/>
<path d="M69.2902 39.4099C67.9902 39.4099 66.9502 38.3698 66.9502 37.0698C66.9502 36.6098 67.3102 36.23 67.7902 36.23C68.2702 36.23 68.6302 36.5898 68.6302 37.0698C68.6302 37.4298 68.9402 37.74 69.3002 37.74C69.6602 37.74 69.9702 37.4298 69.9702 37.0698C69.9702 36.7098 69.6602 36.3999 69.3002 36.3999C68.8402 36.3999 68.4602 36.0398 68.4602 35.5598C68.4602 35.0798 68.8202 34.72 69.3002 34.72C70.6002 34.72 71.6402 35.7598 71.6402 37.0598C71.6202 38.3898 70.5602 39.4199 69.2802 39.4199L69.2902 39.4099Z" fill="white"/>
<path d="M69.2902 33.4099C68.8302 33.4099 68.4502 33.0498 68.4502 32.5698V31.6299C68.4502 31.1699 68.8102 30.7898 69.2902 30.7898C69.7702 30.7898 70.1302 31.1499 70.1302 31.6299V32.5698C70.1102 33.0298 69.7402 33.4099 69.2902 33.4099Z" fill="white"/>
<path d="M69.2902 40.3499C68.8302 40.3499 68.4502 39.99 68.4502 39.51V38.5698C68.4502 38.1098 68.8102 37.73 69.2902 37.73C69.7702 37.73 70.1302 38.0898 70.1302 38.5698V39.51C70.1102 39.99 69.7402 40.3499 69.2902 40.3499Z" fill="white"/>
<path d="M111.07 35.3098C108.15 28.4198 103.99 22.2499 98.69 16.9299C93.39 11.6299 87.2 7.4598 80.31 4.5498C73.18 1.5098 65.61 0 57.81 0C50.01 0 42.44 1.5198 35.31 4.5498C28.42 7.43981 22.23 11.6099 16.93 16.9299C11.63 22.2299 7.46002 28.4198 4.55002 35.3098C1.51002 42.4398 0 50.0098 0 57.8098C0 65.6098 1.52002 73.1798 4.55002 80.3098C7.47002 87.1998 11.63 93.3699 16.93 98.6899C22.23 103.99 28.42 108.16 35.31 111.07C42.44 114.08 50.01 115.62 57.81 115.62C65.61 115.62 73.18 114.1 80.31 111.07C87.2 108.15 93.37 103.99 98.69 98.6899C103.99 93.3899 108.16 87.1998 111.07 80.3098C114.08 73.1798 115.62 65.6098 115.62 57.8098C115.62 50.0098 114.1 42.4398 111.07 35.3098ZM113.8 57.8198C113.8 88.7098 88.67 113.82 57.8 113.82C26.93 113.82 1.80002 88.7098 1.80002 57.8198C1.80002 26.9298 26.91 1.81982 57.8 1.81982C88.69 1.81982 113.8 26.9298 113.8 57.8198Z" fill="white"/>
</svg>
