<svg width="715" height="715" viewBox="0 0 715 715" fill="none" xmlns="http://www.w3.org/2000/svg">
<path d="M357.46 713.42C554.051 713.42 713.42 554.052 713.42 357.46C713.42 160.869 554.051 1.5 357.46 1.5C160.869 1.5 1.5 160.869 1.5 357.46C1.5 554.052 160.869 713.42 357.46 713.42Z" stroke="#F25303" stroke-width="3" stroke-miterlimit="10"/>
<path d="M352.5 207.78H326.31V309.98H352.5V207.78Z" fill="#EF5628"/>
<path d="M424.87 184.61C422.8 184.61 421.42 185.97 421.42 187.33C421.42 188.01 421.42 188.69 422.11 189.38C422.8 190.06 423.49 190.06 424.86 190.74V184.61H424.87Z" fill="#EF5628"/>
<path d="M283.58 250.01H257.39V309.97H283.58V250.01Z" fill="#EF5628"/>
<path d="M318.04 203.69V164.85H291.85V245.93V309.98H318.04V203.69Z" stroke="#F25303" stroke-width="2" stroke-miterlimit="10"/>
<path d="M249.12 245.93V215.95H222.93V245.93V309.98H249.12V245.93Z" stroke="#F25303" stroke-width="2" stroke-miterlimit="10"/>
<path d="M430.39 201.64C430.39 200.96 430.39 200.28 429.7 199.6C429.01 198.91 428.32 198.91 426.95 198.24V203.69C429.01 204.38 430.4 203.69 430.4 201.65L430.39 201.64Z" fill="#EF5628"/>
<path d="M214.66 250.01H188.47V309.97H214.66V250.01Z" fill="#EF5628"/>
<path d="M528.939 505.51H433.829C431.759 505.51 429.689 507.56 429.689 509.6C429.689 511.64 431.759 513.69 433.829 513.69H528.939C530.999 513.69 533.069 511.65 533.069 509.6C533.069 507.55 530.999 505.51 528.939 505.51Z" fill="#EF5628"/>
<path d="M528.939 480.31H433.829C431.759 480.31 429.689 482.35 429.689 484.4C429.689 486.45 431.759 488.49 433.829 488.49H528.939C530.999 488.49 533.069 486.45 533.069 484.4C533.069 482.35 530.999 480.31 528.939 480.31Z" fill="#EF5628"/>
<path d="M528.939 454.41H433.829C431.759 454.41 429.689 456.46 429.689 458.5C429.689 460.54 431.759 462.59 433.829 462.59H528.939C530.999 462.59 533.069 460.55 533.069 458.5C533.069 456.45 530.999 454.41 528.939 454.41Z" fill="#EF5628"/>
<path d="M528.939 429.21H433.829C431.759 429.21 429.689 431.25 429.689 433.3C429.689 435.35 431.759 437.39 433.829 437.39H528.939C530.999 437.39 533.069 435.35 533.069 433.3C533.069 431.25 530.999 429.21 528.939 429.21Z" fill="#EF5628"/>
<path d="M528.939 403.31H433.829C431.759 403.31 429.689 405.36 429.689 407.4C429.689 409.44 431.759 411.49 433.829 411.49H528.939C530.999 411.49 533.069 409.45 533.069 407.4C533.069 405.35 530.999 403.31 528.939 403.31Z" fill="#EF5628"/>
<path d="M528.939 378.11H433.829C431.759 378.11 429.689 380.15 429.689 382.2C429.689 384.25 431.759 386.29 433.829 386.29H528.939C530.999 386.29 533.069 384.25 533.069 382.2C533.069 380.15 530.999 378.11 528.939 378.11Z" fill="#EF5628"/>
<path d="M554.44 531.41H167.1C165.04 531.41 162.97 533.45 162.97 535.5C162.97 537.55 165.04 539.59 167.1 539.59H555.13C557.2 539.59 559.26 537.55 559.26 535.5C559.26 533.45 557.2 531.41 554.44 531.41Z" fill="#EF5628"/>
<path d="M408.33 505.51H313.22C311.15 505.51 309.08 507.56 309.08 509.6C309.08 511.64 311.15 513.69 313.22 513.69H408.33C410.4 513.69 412.46 511.65 412.46 509.6C412.46 507.55 410.4 505.51 408.33 505.51Z" fill="#EF5628"/>
<path d="M408.33 480.31H313.22C311.15 480.31 309.08 482.35 309.08 484.4C309.08 486.45 311.15 488.49 313.22 488.49H408.33C410.4 488.49 412.46 486.45 412.46 484.4C412.46 482.35 410.4 480.31 408.33 480.31Z" fill="#EF5628"/>
<path d="M408.33 454.41H313.22C311.15 454.41 309.08 456.46 309.08 458.5C309.08 460.54 311.15 462.59 313.22 462.59H408.33C410.4 462.59 412.46 460.55 412.46 458.5C412.46 456.45 410.4 454.41 408.33 454.41Z" fill="#EF5628"/>
<path d="M408.33 429.21H313.22C311.15 429.21 309.08 431.25 309.08 433.3C309.08 435.35 311.15 437.39 313.22 437.39H408.33C410.4 437.39 412.46 435.35 412.46 433.3C412.46 431.25 410.4 429.21 408.33 429.21Z" fill="#EF5628"/>
<path d="M408.33 403.31H313.22C311.15 403.31 309.08 405.36 309.08 407.4C309.08 409.44 311.15 411.49 313.22 411.49H408.33C410.4 411.49 412.46 409.45 412.46 407.4C412.46 405.35 410.4 403.31 408.33 403.31Z" fill="#EF5628"/>
<path d="M408.33 378.11H313.22C311.15 378.11 309.08 380.15 309.08 382.2C309.08 384.25 311.15 386.29 313.22 386.29H408.33C410.4 386.29 412.46 384.25 412.46 382.2C412.46 380.15 410.4 378.11 408.33 378.11Z" fill="#EF5628"/>
<path d="M192.6 514.37H287.71C289.78 514.37 291.85 512.32 291.85 510.28C291.85 508.24 289.78 506.19 287.71 506.19H192.6C190.53 506.19 188.47 508.23 188.47 510.28C188.47 512.33 190.53 514.37 192.6 514.37Z" fill="#EF5628"/>
<path d="M192.6 488.48H287.71C289.78 488.48 291.85 486.44 291.85 484.39C291.85 482.34 289.78 480.3 287.71 480.3H192.6C190.53 480.3 188.47 482.34 188.47 484.39C188.47 486.44 190.53 488.48 192.6 488.48Z" fill="#EF5628"/>
<path d="M192.6 463.27H287.71C289.78 463.27 291.85 461.22 291.85 459.18C291.85 457.14 289.78 455.09 287.71 455.09H192.6C190.53 455.09 188.47 457.13 188.47 459.18C188.47 461.23 190.53 463.27 192.6 463.27Z" fill="#EF5628"/>
<path d="M192.6 437.38H287.71C289.78 437.38 291.85 435.34 291.85 433.29C291.85 431.24 289.78 429.2 287.71 429.2H192.6C190.53 429.2 188.47 431.24 188.47 433.29C188.47 435.34 190.53 437.38 192.6 437.38Z" fill="#EF5628"/>
<path d="M528.939 352.21H433.829C431.759 352.21 429.689 354.26 429.689 356.3C429.689 358.34 431.759 360.39 433.829 360.39H528.939C530.999 360.39 533.069 358.35 533.069 356.3C533.069 354.25 530.999 352.21 528.939 352.21Z" fill="#EF5628"/>
<path d="M429.689 331.09C429.689 333.13 431.759 335.18 433.829 335.18H528.939C530.999 335.18 533.069 333.14 533.069 331.09C533.069 329.04 530.999 327 528.939 327H433.829C431.759 327 429.689 329.04 429.689 331.09Z" fill="#EF5628"/>
<path d="M192.599 403.31H278.76C280.82 403.31 282.89 401.27 282.89 399.22V352.21H399.37C401.44 352.21 403.51 350.17 403.51 348.12V299.06L515.849 228.21V245.92C515.849 247.96 517.919 250.01 519.99 250.01C522.06 250.01 524.12 247.97 524.12 245.92V219.35C524.12 217.31 522.74 215.94 521.37 215.26L497.939 207.77C495.869 207.08 493.12 208.45 492.42 210.49C491.73 212.53 493.11 215.26 495.18 215.94L511.03 221.4L397.31 293.62C395.93 294.3 395.25 295.66 395.25 297.03V344.04H278.77C276.7 344.04 274.63 346.08 274.63 348.13V395.14H192.609C190.539 395.14 188.479 397.18 188.479 399.23C188.479 401.28 190.539 403.32 192.609 403.32L192.599 403.31Z" fill="#EF5628"/>
<path d="M425.55 232.98C446.92 232.98 464.15 215.95 464.15 194.83C464.15 173.71 446.92 156.68 425.55 156.68C404.18 156.68 386.96 173.71 386.96 194.83C386.96 215.95 404.19 232.98 425.55 232.98ZM422.11 197.56C420.73 196.87 419.35 196.87 417.97 196.2C416.59 195.51 415.9 194.84 415.22 194.16C414.53 193.47 413.84 192.8 413.84 191.43C413.15 190.75 413.15 189.39 413.15 188.02C413.15 186.65 413.15 185.3 413.84 183.93C414.53 182.57 415.22 181.89 415.9 180.52C416.59 179.84 417.97 179.16 419.35 178.48C420.73 177.8 422.11 177.8 423.49 177.8V173.03H426.94V177.8C429 177.8 431.07 178.48 432.45 179.16C434.52 179.84 435.9 180.52 437.27 181.2L433.83 187.33C433.83 187.33 433.14 187.33 433.14 186.65C432.45 186.65 432.45 185.97 431.07 185.97C429.69 185.97 429.69 185.29 429 185.29C428.31 185.29 427.62 184.61 426.25 184.61V190.74L427.63 191.42C429.01 192.1 430.39 192.1 431.77 192.78C433.15 193.46 433.84 194.14 435.22 194.82C435.91 195.5 436.6 196.18 437.28 197.55C437.97 198.91 437.97 199.59 437.97 201.64C437.97 203.69 437.97 205.05 437.28 206.41C436.59 207.77 435.9 208.45 434.53 209.13C433.15 209.82 432.46 210.49 431.08 211.18C429.7 211.86 428.33 211.86 426.95 211.86V217.31H423.5V211.86C421.43 211.86 419.36 211.18 417.29 210.5C415.23 209.82 413.16 209.14 411.78 207.78L415.23 200.97L415.92 201.65C416.61 202.33 417.3 202.33 417.99 203.01C418.68 203.69 420.06 203.69 420.74 204.37C422.12 205.05 422.81 205.05 424.19 205.05V198.92L422.13 197.56H422.11Z" fill="#EF5628"/>
</svg>
