<svg width="397" height="383" viewBox="0 0 397 383" fill="none" xmlns="http://www.w3.org/2000/svg">
<path d="M189.53 51.1001H163.34V153.3H189.53V51.1001Z" fill="#EF5628"/>
<path d="M261.9 27.9302C259.83 27.9302 258.45 29.2899 258.45 30.6499C258.45 31.3299 258.45 32.0102 259.14 32.7002C259.83 33.3802 260.52 33.3801 261.89 34.0601V27.9302H261.9Z" fill="#EF5628"/>
<path d="M120.61 93.3301H94.4199V153.29H120.61V93.3301Z" fill="#EF5628"/>
<path d="M155.07 47.0103V8.16992H128.88V89.25V153.3H155.07V47.0103Z" stroke="#F25303" stroke-width="2" stroke-miterlimit="10"/>
<path d="M86.15 89.25V59.27H59.96V89.25V153.3H86.15V89.25Z" stroke="#F25303" stroke-width="2" stroke-miterlimit="10"/>
<path d="M267.42 44.96C267.42 44.28 267.42 43.5999 266.73 42.9199C266.04 42.2299 265.35 42.2301 263.98 41.5601V47.0103C266.04 47.7003 267.43 47.0102 267.43 44.9702L267.42 44.96Z" fill="#EF5628"/>
<path d="M51.69 93.3301H25.5V153.29H51.69V93.3301Z" fill="#EF5628"/>
<path d="M365.97 348.83H270.86C268.79 348.83 266.72 350.88 266.72 352.92C266.72 354.96 268.79 357.01 270.86 357.01H365.97C368.03 357.01 370.1 354.97 370.1 352.92C370.1 350.87 368.03 348.83 365.97 348.83Z" fill="#EF5628"/>
<path d="M365.97 323.63H270.86C268.79 323.63 266.72 325.67 266.72 327.72C266.72 329.77 268.79 331.81 270.86 331.81H365.97C368.03 331.81 370.1 329.77 370.1 327.72C370.1 325.67 368.03 323.63 365.97 323.63Z" fill="#EF5628"/>
<path d="M365.97 297.73H270.86C268.79 297.73 266.72 299.78 266.72 301.82C266.72 303.86 268.79 305.91 270.86 305.91H365.97C368.03 305.91 370.1 303.87 370.1 301.82C370.1 299.77 368.03 297.73 365.97 297.73Z" fill="#EF5628"/>
<path d="M365.97 272.53H270.86C268.79 272.53 266.72 274.57 266.72 276.62C266.72 278.67 268.79 280.71 270.86 280.71H365.97C368.03 280.71 370.1 278.67 370.1 276.62C370.1 274.57 368.03 272.53 365.97 272.53Z" fill="#EF5628"/>
<path d="M365.97 246.63H270.86C268.79 246.63 266.72 248.68 266.72 250.72C266.72 252.76 268.79 254.81 270.86 254.81H365.97C368.03 254.81 370.1 252.77 370.1 250.72C370.1 248.67 368.03 246.63 365.97 246.63Z" fill="#EF5628"/>
<path d="M365.97 221.43H270.86C268.79 221.43 266.72 223.47 266.72 225.52C266.72 227.57 268.79 229.61 270.86 229.61H365.97C368.03 229.61 370.1 227.57 370.1 225.52C370.1 223.47 368.03 221.43 365.97 221.43Z" fill="#EF5628"/>
<path d="M391.47 374.73H4.13C2.07 374.73 0 376.77 0 378.82C0 380.87 2.07 382.91 4.13 382.91H392.16C394.23 382.91 396.29 380.87 396.29 378.82C396.29 376.77 394.23 374.73 391.47 374.73Z" fill="#EF5628"/>
<path d="M245.36 348.83H150.25C148.18 348.83 146.11 350.88 146.11 352.92C146.11 354.96 148.18 357.01 150.25 357.01H245.36C247.43 357.01 249.49 354.97 249.49 352.92C249.49 350.87 247.43 348.83 245.36 348.83Z" fill="#EF5628"/>
<path d="M245.36 323.63H150.25C148.18 323.63 146.11 325.67 146.11 327.72C146.11 329.77 148.18 331.81 150.25 331.81H245.36C247.43 331.81 249.49 329.77 249.49 327.72C249.49 325.67 247.43 323.63 245.36 323.63Z" fill="#EF5628"/>
<path d="M245.36 297.73H150.25C148.18 297.73 146.11 299.78 146.11 301.82C146.11 303.86 148.18 305.91 150.25 305.91H245.36C247.43 305.91 249.49 303.87 249.49 301.82C249.49 299.77 247.43 297.73 245.36 297.73Z" fill="#EF5628"/>
<path d="M245.36 272.53H150.25C148.18 272.53 146.11 274.57 146.11 276.62C146.11 278.67 148.18 280.71 150.25 280.71H245.36C247.43 280.71 249.49 278.67 249.49 276.62C249.49 274.57 247.43 272.53 245.36 272.53Z" fill="#EF5628"/>
<path d="M245.36 246.63H150.25C148.18 246.63 146.11 248.68 146.11 250.72C146.11 252.76 148.18 254.81 150.25 254.81H245.36C247.43 254.81 249.49 252.77 249.49 250.72C249.49 248.67 247.43 246.63 245.36 246.63Z" fill="#EF5628"/>
<path d="M245.36 221.43H150.25C148.18 221.43 146.11 223.47 146.11 225.52C146.11 227.57 148.18 229.61 150.25 229.61H245.36C247.43 229.61 249.49 227.57 249.49 225.52C249.49 223.47 247.43 221.43 245.36 221.43Z" fill="#EF5628"/>
<path d="M29.63 357.69H124.74C126.81 357.69 128.88 355.64 128.88 353.6C128.88 351.56 126.81 349.51 124.74 349.51H29.63C27.56 349.51 25.5 351.55 25.5 353.6C25.5 355.65 27.56 357.69 29.63 357.69Z" fill="#EF5628"/>
<path d="M29.63 331.8H124.74C126.81 331.8 128.88 329.76 128.88 327.71C128.88 325.66 126.81 323.62 124.74 323.62H29.63C27.56 323.62 25.5 325.66 25.5 327.71C25.5 329.76 27.56 331.8 29.63 331.8Z" fill="#EF5628"/>
<path d="M29.63 306.59H124.74C126.81 306.59 128.88 304.54 128.88 302.5C128.88 300.46 126.81 298.41 124.74 298.41H29.63C27.56 298.41 25.5 300.45 25.5 302.5C25.5 304.55 27.56 306.59 29.63 306.59Z" fill="#EF5628"/>
<path d="M29.63 280.7H124.74C126.81 280.7 128.88 278.66 128.88 276.61C128.88 274.56 126.81 272.52 124.74 272.52H29.63C27.56 272.52 25.5 274.56 25.5 276.61C25.5 278.66 27.56 280.7 29.63 280.7Z" fill="#EF5628"/>
<path d="M365.97 195.53H270.86C268.79 195.53 266.72 197.58 266.72 199.62C266.72 201.66 268.79 203.71 270.86 203.71H365.97C368.03 203.71 370.1 201.67 370.1 199.62C370.1 197.57 368.03 195.53 365.97 195.53Z" fill="#EF5628"/>
<path d="M266.72 174.41C266.72 176.45 268.79 178.5 270.86 178.5H365.97C368.03 178.5 370.1 176.46 370.1 174.41C370.1 172.36 368.03 170.32 365.97 170.32H270.86C268.79 170.32 266.72 172.36 266.72 174.41Z" fill="#EF5628"/>
<path d="M29.6298 246.63H115.79C117.85 246.63 119.92 244.59 119.92 242.54V195.53H236.4C238.47 195.53 240.54 193.49 240.54 191.44V142.38L352.88 71.5301V89.24C352.88 91.28 354.95 93.3299 357.02 93.3299C359.09 93.3299 361.15 91.29 361.15 89.24V62.6697C361.15 60.6297 359.77 59.2599 358.4 58.5799L334.97 51.0897C332.9 50.3997 330.15 51.7699 329.45 53.8099C328.76 55.8499 330.14 58.5801 332.21 59.2601L348.06 64.72L234.34 136.94C232.96 137.62 232.28 138.98 232.28 140.35V187.36H115.8C113.73 187.36 111.66 189.4 111.66 191.45V238.46H29.6398C27.5698 238.46 25.5098 240.5 25.5098 242.55C25.5098 244.6 27.5698 246.64 29.6398 246.64L29.6298 246.63Z" fill="#EF5628"/>
<path d="M262.58 76.2998C283.95 76.2998 301.18 59.2699 301.18 38.1499C301.18 17.0299 283.95 0 262.58 0C241.21 0 223.99 17.0299 223.99 38.1499C223.99 59.2699 241.22 76.2998 262.58 76.2998ZM259.14 40.8799C257.76 40.1899 256.38 40.19 255 39.52C253.62 38.83 252.93 38.16 252.25 37.48C251.56 36.79 250.87 36.12 250.87 34.75C250.18 34.07 250.18 32.7098 250.18 31.3398C250.18 29.9698 250.18 28.62 250.87 27.25C251.56 25.89 252.25 25.2098 252.93 23.8398C253.62 23.1598 255 22.4798 256.38 21.7998C257.76 21.1198 259.14 21.1201 260.52 21.1201V16.3501H263.97V21.1201C266.03 21.1201 268.1 21.8 269.48 22.48C271.55 23.16 272.93 23.84 274.3 24.52L270.86 30.6499C270.86 30.6499 270.17 30.6502 270.17 29.9702C269.48 29.9702 269.48 29.29 268.1 29.29C266.72 29.29 266.72 28.6099 266.03 28.6099C265.34 28.6099 264.65 27.9302 263.28 27.9302V34.0601L264.66 34.7402C266.04 35.4202 267.42 35.4201 268.8 36.1001C270.18 36.7801 270.87 37.4601 272.25 38.1401C272.94 38.8201 273.63 39.5001 274.31 40.8701C275 42.2301 275 42.91 275 44.96C275 47.01 275 48.37 274.31 49.73C273.62 51.09 272.93 51.7702 271.56 52.4502C270.18 53.1402 269.49 53.81 268.11 54.5C266.73 55.18 265.36 55.1802 263.98 55.1802V60.6299H260.53V55.1802C258.46 55.1802 256.39 54.4998 254.32 53.8198C252.26 53.1398 250.19 52.4601 248.81 51.1001L252.26 44.29L252.95 44.9702C253.64 45.6502 254.33 45.6501 255.02 46.3301C255.71 47.0101 257.09 47.0099 257.77 47.6899C259.15 48.3699 259.84 48.3701 261.22 48.3701V42.2402L259.16 40.8799H259.14Z" fill="#EF5628"/>
</svg>
