<svg width="150" height="150" viewBox="0 0 150 150" fill="none" xmlns="http://www.w3.org/2000/svg">
<path d="M98.157 138.05C98.157 137.74 97.8469 137.44 97.8469 137.14V136.83C97.8469 136.53 97.537 136.53 97.537 136.22C97.537 136.22 97.5369 135.92 97.2269 135.92C97.2269 135.62 96.9169 135.62 96.9169 135.31C96.9169 135.31 96.9169 135.01 96.6069 135.01C96.6069 134.803 96.5035 134.6 96.2969 134.4V134.1C96.2969 133.893 96.1936 133.69 95.9869 133.49V133.18C95.9869 132.88 95.9869 132.57 95.6769 132.57V132.26C95.6769 131.96 95.3669 131.65 95.3669 131.35V131.05C95.3669 130.74 95.3669 130.44 95.0569 130.44V125.58C95.0569 109.78 107.967 97.0198 123.957 97.0198H128.877C129.187 97.0198 129.487 97.0198 129.487 97.3198H129.797C130.107 97.3198 130.407 97.6299 130.717 97.6299H131.027C131.337 97.6299 131.637 97.6299 131.637 97.9299H131.947C132.154 97.9299 132.357 98.03 132.557 98.23H132.867C133.074 98.23 133.277 98.3331 133.477 98.5398C133.477 98.5398 133.787 98.5398 133.787 98.8398C134.097 98.8398 134.097 99.1499 134.397 99.1499C134.397 99.1499 134.707 99.15 134.707 99.45C135.017 99.45 135.017 99.75 135.317 99.75H135.627C135.937 99.75 136.237 100.06 136.547 100.06C136.857 100.06 137.157 100.36 137.157 100.36C140.227 92.4599 142.077 84.5598 142.387 76.0498H73.8369V144.42C82.4469 144.12 90.7469 142.6 98.4269 139.25C98.4269 138.64 98.4269 138.34 98.1169 138.04L98.157 138.05Z" stroke="white" stroke-width="2" stroke-miterlimit="10"/>
<path d="M127.047 128.93C126.437 128.62 125.817 128.32 124.897 128.02V132.58C127.047 132.58 127.967 131.97 127.967 130.45C127.657 129.84 127.657 129.23 127.047 128.93Z" stroke="white" stroke-width="2" stroke-miterlimit="10"/>
<path d="M120.287 118.29C120.287 118.9 120.597 119.5 120.897 119.81C121.207 120.11 122.127 120.42 123.047 120.72V115.86C121.197 116.16 120.277 116.77 120.277 118.29H120.287Z" stroke="white" stroke-width="2" stroke-miterlimit="10"/>
<path d="M132.278 36.25L125.518 52.96C125.208 53.57 124.598 54.1699 123.668 54.1699H123.058C122.138 53.8699 121.518 52.65 122.138 51.74L129.828 32.5999V32.2998C127.368 28.9598 124.598 25.9199 121.528 22.8799L109.848 49.3198C109.538 49.9298 108.928 50.5398 107.998 50.5398C107.688 50.5398 107.388 50.54 107.388 50.23C106.468 49.93 105.848 48.7098 106.468 47.7998L118.148 21.0598C118.148 20.7498 118.458 20.45 118.768 20.45C114.768 17.11 110.778 14.3699 106.168 11.9399L94.7976 41.72C94.4876 42.63 93.8776 42.9399 92.9476 42.9399H92.3376C91.4176 42.6299 90.7977 41.42 91.1077 40.51L102.478 10.4299C93.8677 6.47993 84.0377 4.04999 73.8877 3.73999V72.1099H143.048C142.738 58.7399 138.748 46.58 132.288 36.25H132.278Z" stroke="white" stroke-width="2" stroke-miterlimit="10"/>
<path d="M70.1873 143.82V75.45H1.02734C1.94734 112.83 32.3773 142.91 70.1873 143.82ZM55.4272 114.34C53.8872 115.86 51.4273 115.86 49.8973 114.34C48.3573 112.82 48.3573 110.39 49.8973 108.87C51.4373 107.35 53.8972 107.35 55.4272 108.87C56.9672 110.39 56.9672 112.82 55.4272 114.34ZM28.6873 91.5498C30.2273 90.0298 32.6773 90.0298 34.2173 91.5498C35.7573 93.0698 35.7573 95.4998 34.2173 97.0198C32.6773 98.5398 30.2273 98.5398 28.6873 97.0198C27.1473 95.1898 27.1473 93.0698 28.6873 91.5498ZM26.2273 111.61L56.9673 88.8198C57.8873 88.2098 59.1173 88.2099 59.7373 89.1199C60.3473 90.0299 60.3472 91.2499 59.4272 91.8599L28.6873 114.65C28.3773 114.95 28.0773 114.95 27.4573 114.95C26.8373 114.95 26.2272 114.65 25.9172 114.04C25.3072 113.43 25.6073 112.22 26.2273 111.61Z" stroke="white" stroke-width="2" stroke-miterlimit="10"/>
<path d="M56.347 33.51H44.667V58.1299H56.347V33.51Z" stroke="white" stroke-width="2" stroke-miterlimit="10"/>
<path d="M29.2972 20.1399H42.8273C43.7473 20.1399 44.6672 21.05 44.6672 21.96V29.5598H58.1973C59.1173 29.5598 60.0374 30.4699 60.0374 31.3799V59.9399C60.0374 60.8499 59.1173 61.76 58.1973 61.76H12.0873C11.1673 61.76 10.2473 60.8499 10.2473 59.9399V38.97C4.40731 49 1.33734 60.2398 1.02734 71.7898H70.1873V3.41992C55.4373 3.71992 41.2973 8.5799 29.3073 17.3999V20.1399H29.2972Z" stroke="white" stroke-width="2" stroke-miterlimit="10"/>
<path d="M137.807 104.31C133.507 101.27 128.587 99.75 123.667 99.75C109.837 99.75 98.7676 110.69 98.7676 124.37C98.7676 129.54 100.308 134.4 103.378 138.35C107.988 145.04 115.678 148.99 123.978 148.99C137.808 148.99 148.878 138.05 148.878 124.38C148.568 116.48 144.577 108.88 137.807 104.32V104.31ZM133.807 133.49C133.197 134.4 132.578 135.31 131.658 135.92C130.738 136.53 129.818 137.14 128.588 137.44C127.358 137.74 126.128 138.05 124.898 138.05V142.61H122.438V138.05C120.587 137.74 118.748 137.44 117.208 136.83C115.358 136.22 113.828 135.62 112.598 134.7L115.368 129.23C115.368 129.23 115.678 129.54 116.288 129.84C116.598 130.14 117.208 130.45 118.128 130.75C118.748 131.06 119.668 131.36 120.588 131.66C121.508 131.97 122.438 132.27 123.358 132.27V127.1L121.518 126.49C120.288 126.18 119.058 125.58 118.138 125.27C117.218 124.97 116.297 124.36 115.677 123.75C115.067 123.14 114.758 122.53 114.448 121.62C114.138 120.71 114.138 120.1 114.138 118.89C114.138 117.68 114.448 116.46 114.748 115.24C115.358 114.33 115.978 113.41 116.588 112.5C117.508 111.89 118.438 111.29 119.358 110.68C120.588 110.37 121.508 110.07 122.738 109.77V105.82H125.508V109.77C127.038 110.07 128.888 110.38 130.118 110.98C131.658 111.59 132.888 112.2 134.118 112.81L131.348 117.97C131.348 117.97 131.038 117.67 130.738 117.36C130.428 117.05 129.818 116.75 129.198 116.75C128.578 116.44 127.968 116.14 127.348 115.84C126.118 116.14 125.508 116.14 124.888 115.84V121L126.118 121.31C127.348 121.61 128.577 121.92 129.807 122.52C130.727 122.83 131.648 123.43 132.578 124.04C133.188 124.65 133.807 125.56 134.417 126.47C134.727 127.38 135.038 128.59 135.038 129.81C134.728 131.33 134.417 132.55 133.807 133.46V133.49Z" stroke="white" stroke-width="2" stroke-miterlimit="10"/>
<path d="M40.9769 31.3799V23.7898H29.2969V58.1299H40.9769V31.3799Z" stroke="white" stroke-width="2" stroke-miterlimit="10"/>
<path d="M25.6068 21.97V16.5V1H13.9268V32.2998V58.1299H25.6068V21.97Z" stroke="white" stroke-width="2" stroke-miterlimit="10"/>
</svg>
