<svg width="132" height="102" viewBox="0 0 132 102" fill="none" xmlns="http://www.w3.org/2000/svg">
<path d="M106.13 43.0303C112.41 38.8803 116.57 31.7599 116.57 23.6899C116.57 10.9099 106.16 0.5 93.37 0.5C88.35 0.5 83.5199 2.11984 79.5599 5.08984C75.5899 2.11984 70.7499 0.5 65.7399 0.5C60.7299 0.5 55.8801 2.12984 51.9301 5.08984C47.9601 2.11984 43.12 0.5 38.11 0.5C25.32 0.5 14.91 10.8999 14.91 23.6899C14.91 31.7599 19.07 38.8803 25.35 43.0303C11.24 45.5803 0.5 57.93 0.5 72.77V99.2402C0.5 100.44 1.47004 101.41 2.67004 101.41H65.7001C65.7001 101.41 65.7299 101.41 65.7399 101.41C65.7499 101.41 65.7699 101.41 65.7799 101.41H128.81C130.01 101.41 130.98 100.44 130.98 99.2402V72.77C130.98 57.93 120.24 45.5803 106.13 43.0303ZM93.36 4.8501C103.76 4.8501 112.21 13.2999 112.21 23.6899C112.21 34.0799 103.75 42.5303 93.36 42.5303C89.58 42.5303 85.92 41.4001 82.85 39.3101C83.36 38.7501 83.8399 38.1698 84.2799 37.5698C84.4099 37.3998 84.52 37.2103 84.65 37.0303C84.97 36.5803 85.2799 36.1199 85.5699 35.6499C85.7199 35.3999 85.8499 35.1499 85.9899 34.8999C86.2299 34.4799 86.45 34.0499 86.66 33.6099C86.79 33.3299 86.9099 33.05 87.0299 32.77C87.2099 32.34 87.3899 31.9 87.5399 31.46C87.6399 31.17 87.74 30.8801 87.84 30.5801C87.98 30.1201 88.1101 29.6602 88.2201 29.2002C88.2901 28.9102 88.3701 28.6201 88.4301 28.3301C88.5301 27.8201 88.6101 27.3003 88.6801 26.7803C88.7101 26.5303 88.7599 26.28 88.7899 26.02C88.8699 25.25 88.92 24.4602 88.92 23.6802C88.92 22.9002 88.8699 22.1098 88.7899 21.3398C88.7599 21.0798 88.7201 20.8301 88.6801 20.5801C88.6101 20.0601 88.5301 19.55 88.4301 19.04C88.3701 18.75 88.2901 18.4602 88.2201 18.1602C88.1101 17.7002 87.99 17.24 87.84 16.79C87.75 16.49 87.6399 16.1899 87.5399 15.8999C87.3799 15.4699 87.2199 15.0399 87.0399 14.6099C86.9199 14.3199 86.79 14.03 86.66 13.75C86.46 13.33 86.2399 12.91 86.0099 12.5C85.8599 12.24 85.7199 11.97 85.5699 11.71C85.2999 11.26 85.0001 10.8299 84.7001 10.3999C84.5601 10.1999 84.4299 9.99004 84.2799 9.79004C83.8299 9.19004 83.36 8.61006 82.85 8.06006C85.92 5.97006 89.57 4.83984 93.36 4.83984V4.8501ZM98.9999 97.0698H71.15L79.15 89.3901C79.71 88.8501 79.9399 88.0603 79.7599 87.3003L71.66 54.4399L74.88 46.98C76.3 47.08 77.7099 47.2498 79.0699 47.5698C90.8099 50.3298 99.0099 60.69 99.0099 72.77V97.0698H98.9999ZM51.91 43.25C51.55 43.17 51.1699 43.1203 50.8099 43.0503C51.1899 42.8003 51.5701 42.5503 51.9301 42.2803C52.2901 42.5503 52.6699 42.8003 53.0399 43.0503C52.6599 43.1203 52.28 43.17 51.91 43.25ZM70.1801 46.8701L67.9401 52.0601H63.5399L61.2999 46.8701H70.1901H70.1801ZM79.5599 42.2803C79.9199 42.5503 80.3 42.8003 80.67 43.0503C80.3 43.1203 79.9199 43.17 79.5599 43.25C79.1899 43.17 78.8101 43.1203 78.4401 43.0503C78.8201 42.8003 79.1899 42.5503 79.5599 42.2803ZM63.8099 56.4199H67.66L75.2201 87.1201L65.7301 96.2402L56.2399 87.1201L63.7999 56.4199H63.8099ZM78.13 9.52002C82.22 13.08 84.5699 18.2502 84.5699 23.6802C84.5699 24.3602 84.5301 25.0302 84.4601 25.7002C83.9501 30.3802 81.71 34.7201 78.12 37.8501C74.71 40.8601 70.3101 42.5103 65.7301 42.5103C61.1501 42.5103 56.76 40.8501 53.35 37.8301C49.25 34.2701 46.89 29.1099 46.89 23.6699C46.89 22.9899 46.9299 22.3099 46.9999 21.6499C47.5099 16.9699 49.76 12.63 53.36 9.5C56.75 6.49 61.1401 4.83984 65.7201 4.83984C70.3001 4.83984 74.69 6.50025 78.12 9.51025L78.13 9.52002ZM19.25 23.6899C19.25 13.2999 27.71 4.8501 38.1 4.8501C41.88 4.8501 45.53 5.97982 48.62 8.06982C48.11 8.61982 47.6401 9.20029 47.1901 9.80029C47.0601 9.97029 46.9399 10.1598 46.8199 10.3398C46.4999 10.7898 46.19 11.2502 45.9 11.7202C45.75 11.9702 45.6201 12.23 45.4701 12.48C45.2401 12.9 45.0099 13.3203 44.7999 13.7603C44.6699 14.0403 44.54 14.3199 44.42 14.6099C44.24 15.0399 44.07 15.4702 43.91 15.9102C43.81 16.2002 43.7 16.5 43.61 16.79C43.47 17.24 43.3501 17.6999 43.2301 18.1699C43.1601 18.4599 43.0799 18.75 43.0199 19.04C42.9199 19.55 42.8399 20.0698 42.7699 20.5898C42.7399 20.8398 42.69 21.0901 42.66 21.3501C42.58 22.1301 42.5299 22.9099 42.5299 23.6899C42.5299 24.4699 42.58 25.26 42.66 26.04C42.69 26.29 42.7299 26.54 42.7699 26.79C42.8399 27.31 42.9199 27.8298 43.0199 28.3398C43.0799 28.6298 43.1601 28.92 43.2301 29.21C43.3401 29.67 43.47 30.1301 43.61 30.5801C43.7 30.8801 43.81 31.18 43.91 31.48C44.06 31.91 44.23 32.33 44.41 32.75C44.54 33.05 44.6599 33.3399 44.7999 33.6299C44.9999 34.0399 45.2101 34.4501 45.4401 34.8501C45.5901 35.1201 45.74 35.3999 45.9 35.6699C46.16 36.0999 46.4401 36.5099 46.7301 36.9199C46.8801 37.1399 47.0301 37.3698 47.1901 37.5898C47.6401 38.1798 48.11 38.7601 48.61 39.3101C45.53 41.4001 41.87 42.5303 38.09 42.5303C27.69 42.5303 19.24 34.0799 19.24 23.6899H19.25ZM4.83997 72.77C4.83997 58.49 16.4501 46.8799 30.7201 46.8799H42.6901C42.5501 46.9699 42.4099 47.0599 42.2699 47.1499C42.0599 47.2799 41.85 47.4201 41.64 47.5601C41.18 47.8601 40.7399 48.17 40.2999 48.5C40.1199 48.63 39.9399 48.7599 39.7599 48.8999C39.1599 49.3599 38.5799 49.8398 38.0299 50.3398C37.9999 50.3698 37.9701 50.4002 37.9301 50.4302C37.4101 50.9102 36.91 51.3999 36.42 51.9199C36.26 52.0899 36.1101 52.2602 35.9501 52.4302C35.5901 52.8302 35.23 53.2402 34.89 53.6602C34.74 53.8402 34.5901 54.0302 34.4401 54.2202C34.0601 54.7202 33.69 55.2202 33.33 55.7402C33.26 55.8402 33.18 55.9403 33.11 56.0503C32.7 56.6803 32.3101 57.3202 31.9401 57.9702C31.8401 58.1502 31.75 58.3303 31.66 58.5103C31.4 59.0103 31.15 59.51 30.91 60.02C30.81 60.24 30.71 60.4699 30.61 60.6899C30.38 61.2099 30.1701 61.7403 29.9801 62.2803C29.9101 62.4703 29.8399 62.6498 29.7699 62.8398C29.5199 63.5598 29.3 64.28 29.11 65.02C29.07 65.17 29.04 65.3202 29.01 65.4702C28.86 66.0702 28.73 66.68 28.62 67.29C28.57 67.54 28.54 67.7803 28.5 68.0303C28.41 68.5803 28.34 69.1402 28.29 69.7002C28.27 69.9402 28.24 70.1702 28.22 70.4102C28.16 71.2002 28.12 71.99 28.12 72.79V97.0898H4.83997V72.79V72.77ZM32.4701 72.77C32.4701 71.26 32.6 69.7801 32.85 68.3301C34.58 58.2201 42.14 49.9798 52.42 47.5698C53.78 47.2498 55.18 47.08 56.6 46.98L59.8199 54.4399L51.7201 87.3003C51.5301 88.0503 51.77 88.8501 52.33 89.3901L60.33 97.0698H32.4801V72.77H32.4701ZM126.63 97.0698H103.35V72.77C103.35 71.97 103.31 71.1801 103.25 70.3901C103.23 70.1501 103.2 69.9202 103.18 69.6802C103.12 69.1202 103.05 68.5603 102.97 68.0103C102.93 67.7603 102.89 67.52 102.85 67.27C102.74 66.65 102.61 66.0399 102.46 65.4399C102.42 65.2899 102.4 65.15 102.36 65C102.17 64.26 101.94 63.5298 101.7 62.8198C101.63 62.6298 101.56 62.44 101.49 62.25C101.29 61.72 101.09 61.1899 100.86 60.6699C100.76 60.4399 100.66 60.2102 100.55 59.9902C100.32 59.4902 100.07 58.99 99.8099 58.5C99.7099 58.32 99.6199 58.1302 99.5199 57.9502C99.1599 57.3002 98.77 56.66 98.36 56.04C98.28 55.92 98.2 55.8102 98.12 55.7002C97.78 55.1902 97.4199 54.7002 97.0399 54.2202C96.8899 54.0202 96.7299 53.8301 96.5699 53.6401C96.2399 53.2301 95.8999 52.8402 95.5399 52.4502C95.3799 52.2702 95.2199 52.0902 95.0499 51.9102C94.5899 51.4302 94.11 50.95 93.62 50.5C93.56 50.44 93.5001 50.3801 93.4401 50.3301C92.8901 49.8301 92.3201 49.3602 91.7301 48.9102C91.5401 48.7602 91.33 48.6202 91.14 48.4702C90.72 48.1602 90.3 47.8601 89.86 47.5801C89.64 47.4301 89.4101 47.2801 89.1801 47.1401C89.0501 47.0601 88.9199 46.9599 88.7799 46.8799H100.75C115.02 46.8799 126.63 58.5 126.63 72.77V97.0698Z" stroke="#2D2D2D" stroke-miterlimit="10"/>
</svg>
