<svg width="94" height="102" viewBox="0 0 94 102" fill="none" xmlns="http://www.w3.org/2000/svg">
<path d="M87.95 98H40.5901C39.6601 98 38.9001 97.2398 38.9001 96.3098C38.9001 95.3798 39.6601 94.6199 40.5901 94.6199C40.5901 95.5499 41.35 96.3098 42.28 96.3098C43.21 96.3098 43.97 95.5499 43.97 94.6199V91.24C43.97 84.51 47.2299 78.47 52.4299 74.77V77.73C52.4299 78.66 53.1901 79.4199 54.1201 79.4199C55.0501 79.4199 55.8101 78.66 55.8101 77.73V72.8098C56.3701 72.5598 56.93 72.3299 57.5 72.1399V82.7998C57.5 83.7298 58.2599 84.49 59.1899 84.49C60.1199 84.49 60.8801 83.7298 60.8801 82.7998V69.2798C60.8801 68.3498 61.6401 67.5898 62.5701 67.5898H65.95C66.88 67.5898 67.6401 68.3498 67.6401 69.2798V82.7998C67.6401 83.7298 68.4001 84.49 69.3301 84.49C70.2601 84.49 71.02 83.7298 71.02 82.7998V72.1399C71.6 72.3399 72.15 72.5598 72.71 72.8098V77.73C72.71 78.66 73.4701 79.4199 74.4001 79.4199C75.3301 79.4199 76.0901 78.66 76.0901 77.73V74.77C81.2801 78.47 84.55 84.52 84.55 91.24V94.6199C84.55 95.5499 85.31 96.3098 86.24 96.3098C87.17 96.3098 87.9299 95.5499 87.9299 94.6199C88.8599 94.6199 89.6201 95.3798 89.6201 96.3098C89.6201 97.2398 88.8599 98 87.9299 98H87.95ZM35.8201 98H13.53V13.52H81.1899V74.6699C78.4299 71.8599 74.95 69.7298 70.97 68.5698C70.61 66.1098 68.52 64.21 65.96 64.21H62.5801C60.0201 64.21 57.9301 66.1198 57.5701 68.5698C47.5201 71.5098 40.5901 80.65 40.5901 91.24C37.8001 91.24 35.52 93.5198 35.52 96.3098C35.52 96.8998 35.6401 97.48 35.8201 98ZM10.1401 11.8298V87.8599H3.37012V3.37988H71.03V10.1399H11.8301C10.9001 10.1399 10.1401 10.8998 10.1401 11.8298ZM87.95 91.24C87.95 86.8 86.7101 82.6198 84.5701 79.0398V11.8298C84.5701 10.8998 83.8101 10.1399 82.8801 10.1399H74.4199V1.68994C74.4199 0.759941 73.66 0 72.73 0H1.68994C0.759941 0 0 0.759941 0 1.68994V89.5498C0 90.4798 0.759941 91.24 1.68994 91.24H10.1501V99.6899C10.1501 100.62 10.9101 101.38 11.8401 101.38H87.96C90.76 101.38 93.03 99.0998 93.03 96.3098C93.03 93.5198 90.75 91.24 87.96 91.24" fill="white"/>
<path d="M81.1802 91.24H69.3403V89.5498C69.3403 87.6898 67.8202 86.1699 65.9602 86.1699H62.5803C60.7203 86.1699 59.2002 87.6898 59.2002 89.5498V91.24H49.0503C48.1203 91.24 47.3604 91.9999 47.3604 92.9299C47.3604 93.8599 48.1203 94.6199 49.0503 94.6199H60.8904C61.8204 94.6199 62.5803 93.8599 62.5803 92.9299V89.5498H65.9602V92.9299C65.9602 93.8599 66.7204 94.6199 67.6504 94.6199H81.1802C82.1102 94.6199 82.8704 93.8599 82.8704 92.9299C82.8704 91.9999 82.1102 91.24 81.1802 91.24Z" fill="white"/>
<path d="M27.05 23.6599H67.6501V33.7998H27.05V23.6599ZM25.3601 37.1699H69.3401C70.2701 37.1699 71.03 36.41 71.03 35.48V21.96C71.03 21.03 70.2701 20.27 69.3401 20.27H25.3601C24.4301 20.27 23.6699 21.03 23.6699 21.96V35.48C23.6699 36.41 24.4301 37.1699 25.3601 37.1699Z" fill="white"/>
<path d="M28.7498 43.9299H25.3699C24.4399 43.9299 23.6797 44.6899 23.6797 45.6199C23.6797 46.5499 24.4399 47.3098 25.3699 47.3098H28.7498C29.6798 47.3098 30.4397 46.5499 30.4397 45.6199C30.4397 44.6899 29.6798 43.9299 28.7498 43.9299Z" fill="white"/>
<path d="M69.3403 43.9299H35.5103C34.5803 43.9299 33.8203 44.6899 33.8203 45.6199C33.8203 46.5499 34.5803 47.3098 35.5103 47.3098H69.3403C70.2703 47.3098 71.0303 46.5499 71.0303 45.6199C71.0303 44.6899 70.2703 43.9299 69.3403 43.9299Z" fill="white"/>
<path d="M28.7498 50.6899H25.3699C24.4399 50.6899 23.6797 51.4499 23.6797 52.3799C23.6797 53.3099 24.4399 54.0698 25.3699 54.0698H28.7498C29.6798 54.0698 30.4397 53.3099 30.4397 52.3799C30.4397 51.4499 29.6798 50.6899 28.7498 50.6899Z" fill="white"/>
<path d="M69.3403 50.6899H35.5103C34.5803 50.6899 33.8203 51.4499 33.8203 52.3799C33.8203 53.3099 34.5803 54.0698 35.5103 54.0698H69.3403C70.2703 54.0698 71.0303 53.3099 71.0303 52.3799C71.0303 51.4499 70.2703 50.6899 69.3403 50.6899Z" fill="white"/>
<path d="M28.7498 57.45H25.3699C24.4399 57.45 23.6797 58.2099 23.6797 59.1399C23.6797 60.0699 24.4399 60.8298 25.3699 60.8298H28.7498C29.6798 60.8298 30.4397 60.0699 30.4397 59.1399C30.4397 58.2099 29.6798 57.45 28.7498 57.45Z" fill="white"/>
<path d="M69.3403 57.45H35.5103C34.5803 57.45 33.8203 58.2099 33.8203 59.1399C33.8203 60.0699 34.5803 60.8298 35.5103 60.8298H69.3403C70.2703 60.8298 71.0303 60.0699 71.0303 59.1399C71.0303 58.2099 70.2703 57.45 69.3403 57.45Z" fill="white"/>
<path d="M28.7498 64.21H25.3699C24.4399 64.21 23.6797 64.9699 23.6797 65.8999C23.6797 66.8299 24.4399 67.5898 25.3699 67.5898H28.7498C29.6798 67.5898 30.4397 66.8299 30.4397 65.8999C30.4397 64.9699 29.6798 64.21 28.7498 64.21Z" fill="white"/>
<path d="M52.4302 64.21H35.5103C34.5803 64.21 33.8203 64.9699 33.8203 65.8999C33.8203 66.8299 34.5803 67.5898 35.5103 67.5898H52.4302C53.3602 67.5898 54.1204 66.8299 54.1204 65.8999C54.1204 64.9699 53.3602 64.21 52.4302 64.21Z" fill="white"/>
<path d="M28.7498 70.97H25.3699C24.4399 70.97 23.6797 71.7299 23.6797 72.6599C23.6797 73.5899 24.4399 74.3499 25.3699 74.3499H28.7498C29.6798 74.3499 30.4397 73.5899 30.4397 72.6599C30.4397 71.7299 29.6798 70.97 28.7498 70.97Z" fill="white"/>
<path d="M43.9702 74.3398C44.9002 74.3398 45.6604 73.5799 45.6604 72.6499C45.6604 71.7199 44.9002 70.96 43.9702 70.96H35.5103C34.5803 70.96 33.8203 71.7199 33.8203 72.6499C33.8203 73.5799 34.5803 74.3398 35.5103 74.3398H43.9702Z" fill="white"/>
</svg>
