<svg width="116" height="116" viewBox="0 0 116 116" fill="none" xmlns="http://www.w3.org/2000/svg">
<path d="M57.8301 115.21C39.9801 115.21 22.13 115.21 4.28003 115.21C1.27003 115.21 0.5 114.45 0.5 111.45C0.5 75.7902 0.5 40.1302 0.5 4.47021C0.5 1.31021 1.29998 0.510254 4.47998 0.510254C20.69 0.510254 36.8901 0.5 53.1001 0.5C72.3301 0.5 91.56 0.50002 110.79 0.52002C111.35 0.52002 111.91 0.519844 112.47 0.589844C114.5 0.849844 115.16 1.59992 115.23 3.66992C115.24 3.96992 115.23 4.26982 115.23 4.56982C115.23 40.1598 115.23 75.7401 115.23 111.33C115.23 111.63 115.23 111.93 115.23 112.23C115.15 114.32 114.25 115.21 112.16 115.22C108.05 115.24 103.95 115.22 99.8401 115.22C85.8401 115.22 71.8301 115.22 57.8301 115.22V115.21ZM5.04004 110.58C6.22004 110.58 7.22009 110.58 8.22009 110.58C41.4201 110.58 74.6201 110.58 107.81 110.58C110.64 110.58 110.65 110.58 110.66 107.74C110.67 97.4302 110.68 87.1298 110.69 76.8198C110.69 53.2198 110.69 29.62 110.71 6.02002C110.71 5.33002 110.43 5.1902 109.85 5.2002C108.92 5.2202 107.98 5.22998 107.05 5.22998C75.12 5.22998 43.19 5.24 11.26 5.25C9.51001 5.25 7.75 5.23996 6 5.20996C5.36 5.19996 5.02006 5.3901 5.06006 6.1001C5.10006 6.7701 5.04004 7.43986 5.04004 8.10986C5.04004 36.8599 5.04004 65.6101 5.04004 94.3701C5.04004 99.7001 5.04004 105.04 5.04004 110.58Z" stroke="#2D2D2D" stroke-miterlimit="10"/>
<path d="M39.8899 42.9001C39.4499 42.5401 38.9698 42.21 38.5598 41.8C31.8798 35.13 25.1998 28.4602 18.5298 21.7702C17.9498 21.1902 17.3698 20.5902 16.9298 19.9202C16.3098 18.9802 16.5298 17.8804 17.3298 17.1804C18.1898 16.4304 19.2498 16.4001 20.1698 17.1501C20.6898 17.5801 21.1598 18.0605 21.6298 18.5305C28.5998 25.5005 35.5598 32.4604 42.5298 39.4304C42.6998 39.6004 42.9099 39.7303 43.3599 40.0803C43.3599 38.9203 43.3599 38.0103 43.3599 37.1003C43.3399 31.3903 43.3298 25.6804 43.3098 19.9704C43.3098 18.9704 43.4499 18.0104 44.3799 17.4104C45.9099 16.4104 47.9098 17.6001 47.9998 19.5901C48.0598 20.8901 48.0098 22.2005 48.0098 23.5105C48.0098 30.1505 48.0098 36.8002 48.0098 43.4402C48.0098 43.7402 48.0098 44.0401 48.0098 44.3401C47.9998 47.0801 47.1299 47.9702 44.4099 47.9802C39.7399 47.9802 35.0799 47.9802 30.4099 47.9802C27.0499 47.9802 23.6898 47.9802 20.3298 47.9802C19.7798 47.9802 19.2098 47.9002 18.6798 47.7702C17.4898 47.4902 16.9598 46.7405 16.9998 45.4905C17.0298 44.3405 17.6098 43.6504 18.8098 43.4504C19.4298 43.3404 20.0698 43.3301 20.6998 43.3201C26.7798 43.3001 32.8697 43.2902 38.9497 43.2702C39.1897 43.2702 39.4397 43.2404 39.6797 43.2204C39.7497 43.1204 39.8199 43.0104 39.8899 42.9104V42.9001Z" stroke="#2D2D2D" stroke-miterlimit="10"/>
<path d="M40.1 72.6802C39.24 72.5802 38.6399 72.4399 38.0299 72.4399C32.3599 72.4399 26.6799 72.4702 21.0099 72.4702C20.2699 72.4702 19.5099 72.4498 18.7799 72.3198C17.6399 72.0998 17.0199 71.3102 16.9999 70.2002C16.9799 69.1102 17.59 68.29 18.72 68.02C19.44 67.85 20.1999 67.7202 20.9299 67.7202C28.9199 67.7602 36.9 67.8002 44.89 67.9102C47.24 67.9402 48.0099 68.8199 48.0099 71.1699C48.0099 79.2699 48.0099 87.3702 48.0099 95.4702C48.0099 95.7302 48.0098 95.99 47.9798 96.25C47.7598 97.86 46.92 98.72 45.6 98.71C44.24 98.69 43.43 97.8802 43.41 96.1602C43.34 90.8602 43.36 85.5603 43.35 80.2603C43.35 78.8603 43.35 77.46 43.35 75.71C42.81 76.16 42.5299 76.3498 42.2899 76.5898C35.2199 83.6598 28.1599 90.7501 21.0699 97.8101C20.2999 98.5701 19.5699 99.5198 18.1999 99.0898C16.7599 98.6298 16.1299 96.9299 17.0299 95.6899C17.3099 95.2999 17.6599 94.9499 17.9999 94.6099C24.5799 88.0399 31.1498 81.4799 37.7398 74.9199C38.4398 74.2199 39.18 73.5599 40.11 72.6699L40.1 72.6802Z" stroke="#2D2D2D" stroke-miterlimit="10"/>
<path d="M75.9996 43.2098C76.9096 43.2498 77.7497 43.3299 78.5797 43.3299C84.0697 43.3299 89.5497 43.3299 95.0397 43.3299C95.6297 43.3299 96.2297 43.3898 96.8197 43.4798C97.9997 43.6498 98.6596 44.36 98.7396 45.45C98.8196 46.64 98.2497 47.4601 97.0697 47.7401C96.4597 47.8801 95.8196 47.9701 95.1896 47.9701C87.1996 47.9901 79.2096 47.9801 71.2196 47.9701C68.6696 47.9701 67.7496 47.0999 67.7396 44.5399C67.7196 36.3299 67.7196 28.1097 67.7396 19.8997C67.7396 18.0097 69.1796 16.6997 70.6796 17.1097C71.7996 17.4197 72.4196 18.3001 72.4296 19.7801C72.4396 25.8701 72.4296 31.9499 72.4296 38.0399C72.4296 38.6199 72.4296 39.2 72.4296 40.12C73.0796 39.52 73.5195 39.1601 73.9195 38.7601C80.9495 31.7401 87.9696 24.72 94.9896 17.7C95.6896 17 96.4196 16.33 97.5296 16.7C99.2296 17.25 99.7696 19.2899 98.4696 20.5399C95.8096 23.0999 93.2297 25.7497 90.6097 28.3597C85.7997 33.1497 80.9795 37.9401 76.1695 42.7401C76.0995 42.8101 76.0896 42.9301 75.9896 43.2201L75.9996 43.2098Z" stroke="#2D2D2D" stroke-miterlimit="10"/>
<path d="M72.44 75.7997C72.44 76.5197 72.44 77.0301 72.44 77.5301C72.44 83.3601 72.44 89.1801 72.43 95.0101C72.43 95.6101 72.4302 96.2099 72.3302 96.7899C72.1002 98.0799 71.4301 98.64 70.2101 98.66C68.9001 98.68 68.2401 98.1599 67.9701 96.8099C67.8301 96.1199 67.7501 95.4101 67.7501 94.7001C67.7301 86.9701 67.7501 79.2401 67.7501 71.5101C67.7501 71.3201 67.7301 71.1301 67.7501 70.9501C68.1401 68.6901 68.1601 68.0597 70.7201 67.8797C72.3901 67.7597 74.0801 67.7098 75.7601 67.7098C81.8101 67.6898 87.8603 67.6898 93.9103 67.7098C94.8803 67.7098 95.8501 67.8198 96.8001 67.9598C98.0101 68.1498 98.7501 69.03 98.7701 70.18C98.7901 71.3 98.1502 72.0797 96.8802 72.2997C96.1102 72.4297 95.3201 72.43 94.5401 72.43C89.1601 72.43 83.7903 72.41 78.4103 72.41C77.5803 72.41 76.7401 72.4899 75.7901 72.5399C77.4401 74.2299 78.92 75.7899 80.44 77.3099C86.25 83.1199 92.0802 88.9098 97.8902 94.7098C98.1502 94.9698 98.4202 95.2401 98.6502 95.5301C99.3802 96.4201 99.3802 97.7699 98.6502 98.4999C97.8102 99.3399 96.4401 99.4097 95.5501 98.5497C92.4801 95.5497 89.4503 92.5098 86.4103 89.4798C82.0303 85.0998 77.6501 80.7099 73.2701 76.3299C73.1101 76.1699 72.87 76.0697 72.44 75.7997Z" stroke="#2D2D2D" stroke-miterlimit="10"/>
</svg>
