<svg width="72" height="72" viewBox="0 0 72 72" fill="none" xmlns="http://www.w3.org/2000/svg">
<path d="M63.0601 0H8.63C3.86379 0 0 3.86367 0 8.62988V63.0601C0 67.8263 3.86379 71.6899 8.63 71.6899H63.0601C67.8263 71.6899 71.6901 67.8263 71.6901 63.0601V8.62988C71.6901 3.86367 67.8263 0 63.0601 0Z" fill="white"/>
<path d="M35.9102 15.46C28.3102 15.46 22.1602 21.62 22.1602 29.21C22.1602 36.8 35.9102 57.02 35.9102 57.02C35.9102 57.02 49.6602 36.81 49.6602 29.21C49.6602 21.61 43.5002 15.46 35.9102 15.46ZM35.9102 34.45C31.8202 34.45 28.5001 31.13 28.5001 27.04C28.5001 22.95 31.8202 19.6299 35.9102 19.6299C40.0002 19.6299 43.3202 22.95 43.3202 27.04C43.3202 31.13 40.0002 34.45 35.9102 34.45Z" fill="#ED5829"/>
</svg>
