<svg width="142" height="142" viewBox="0 0 142 142" fill="none" xmlns="http://www.w3.org/2000/svg">
<path d="M73.1033 85.48C49.5433 85.48 30.3633 66.31 30.3633 42.74C30.3633 19.17 49.5333 0 73.1033 0C96.6733 0 115.843 19.17 115.843 42.74C115.843 66.31 96.6733 85.48 73.1033 85.48ZM73.1033 3.83008C51.6533 3.83008 34.1934 21.28 34.1934 42.74C34.1934 64.2 51.6433 81.6499 73.1033 81.6499C94.5633 81.6499 112.013 64.2 112.013 42.74C112.013 21.28 94.5633 3.83008 73.1033 3.83008Z" fill="white"/>
<path d="M56.8929 60.8701C56.4029 60.8701 55.913 60.6801 55.543 60.3101C54.793 59.5601 54.793 58.3501 55.543 57.6001L87.973 25.1699C88.723 24.4199 89.933 24.4199 90.683 25.1699C91.433 25.9199 91.433 27.1301 90.683 27.8801L58.2529 60.3101C57.8829 60.6801 57.393 60.8701 56.903 60.8701H56.8929Z" fill="white"/>
<path d="M83.1431 67.3501C80.5531 67.3501 77.9631 66.3601 75.9931 64.3901C72.0531 60.4501 72.0531 54.0301 75.9931 50.0901C79.8131 46.2701 86.4731 46.2701 90.2931 50.0901C94.2331 54.0301 94.2331 60.4501 90.2931 64.3901C88.3231 66.3601 85.7331 67.3501 83.1431 67.3501ZM83.1431 50.95C81.4631 50.95 79.8832 51.6 78.7032 52.79C76.2532 55.24 76.2532 59.2299 78.7032 61.6799C81.1532 64.1299 85.1432 64.1299 87.5932 61.6799C90.0432 59.2299 90.0432 55.24 87.5932 52.79C86.4032 51.6 84.8331 50.95 83.1531 50.95H83.1431Z" fill="white"/>
<path d="M63.063 38.35C60.473 38.35 57.883 37.3601 55.913 35.3901C51.973 31.4501 51.973 25.03 55.913 21.09C59.853 17.15 66.2731 17.15 70.2131 21.09C74.1531 25.03 74.1531 31.4501 70.2131 35.3901C68.2431 37.3601 65.653 38.35 63.063 38.35ZM63.063 21.9599C61.453 21.9599 59.843 22.57 58.623 23.8C56.173 26.25 56.173 30.2399 58.623 32.6899C61.073 35.1399 65.063 35.1399 67.513 32.6899C69.963 30.2399 69.963 26.25 67.513 23.8C66.283 22.58 64.673 21.9599 63.073 21.9599H63.063Z" fill="white"/>
<path d="M67.4436 117.8C65.3636 117.8 63.2836 117.68 61.2036 117.45L48.7535 116.06C47.7035 115.94 46.9436 115 47.0636 113.94C47.1836 112.89 48.1336 112.14 49.1836 112.25L61.6335 113.64C67.9135 114.34 74.2036 113.91 80.3236 112.35L91.2335 109.57C93.2135 109.07 94.5036 107.26 94.2236 105.36C93.8536 102.84 92.4835 100.62 90.3535 99.1C88.1935 97.56 85.5236 96.94 82.8436 97.33L62.5536 100.29C58.8036 100.84 55.0635 100.23 51.7335 98.55C42.3135 93.79 30.8735 94.38 21.9035 100.09C18.9835 101.94 15.8336 103.39 12.5336 104.39L2.47362 107.43C1.46362 107.74 0.393602 107.16 0.0836017 106.15C-0.226398 105.14 0.353509 104.07 1.36351 103.76L11.4236 100.72C14.3936 99.8199 17.2236 98.52 19.8436 96.86C29.9536 90.42 42.8336 89.7601 53.4636 95.1301C56.0536 96.4401 59.0935 96.9299 62.0035 96.4999L82.2936 93.54C85.9636 93 89.6136 93.8699 92.5836 95.9799C95.5736 98.1099 97.5035 101.24 98.0235 104.81C98.5835 108.65 96.0736 112.3 92.1836 113.29L81.2735 116.07C76.7335 117.23 72.1036 117.81 67.4536 117.81L67.4436 117.8Z" fill="white"/>
<path d="M66.7036 141.09C63.7736 141.09 60.8436 140.89 57.9136 140.49L27.3635 136.29C23.1735 135.72 18.9335 136.35 15.1035 138.12L12.5836 139.29C11.6236 139.74 10.4836 139.32 10.0436 138.36C9.6036 137.4 10.0136 136.26 10.9736 135.82L13.4935 134.65C17.9935 132.57 22.9636 131.82 27.8836 132.5L58.4336 136.7C72.6136 138.65 87.0535 135.52 99.1035 127.9L136.824 104.01C137.424 103.63 137.774 103.01 137.784 102.3C137.804 101.59 137.484 100.94 136.904 100.54C131.434 96.69 124.094 95.8799 117.764 98.4399L96.8236 106.88C95.8436 107.27 94.7236 106.8 94.3336 105.82C93.9336 104.84 94.4136 103.72 95.3936 103.33L116.334 94.8901C123.864 91.8601 132.584 92.8199 139.104 97.4099C140.724 98.5499 141.664 100.42 141.614 102.4C141.564 104.38 140.544 106.2 138.864 107.25L101.144 131.14C90.8236 137.67 78.8436 141.1 66.6936 141.1L66.7036 141.09Z" fill="white"/>
</svg>
